<?xml version="1.0" encoding="utf-8"?>
<!-- Generator: Adobe Illustrator 24.2.3, SVG Export Plug-In . SVG Version: 6.00 Build 0)  -->
<svg version="1.1" id="Layer_1" xmlns="http://www.w3.org/2000/svg" xmlns:xlink="http://www.w3.org/1999/xlink" x="0px" y="0px"
	 viewBox="0 0 79.96 72.89" style="enable-background:new 0 0 79.96 72.89;" xml:space="preserve">
<style type="text/css">
	.st0{fill:none;}
	.st1{fill:#FFFFFF;}
	.st2{fill:#013220;}
	.st3{fill:#FFFFFF;stroke:#013220;stroke-width:0.75;stroke-miterlimit:10;}
	.st4{fill:#013220;stroke:#FFFFFF;stroke-width:0.75;stroke-miterlimit:10;}
	.st5{fill:#070707;stroke:#42210B;stroke-width:0.75;stroke-miterlimit:10;}
	.st6{fill:#070707;stroke:#110B07;stroke-width:0.75;stroke-miterlimit:10;}
	.st7{fill:#161616;stroke:#FFFFFF;stroke-width:0.75;stroke-miterlimit:10;}
	.st8{fill:#FFFF00;stroke:#D4145A;stroke-width:0.75;stroke-miterlimit:10;}
	.st9{fill:none;stroke:#000000;stroke-width:0.75;stroke-miterlimit:10;}
	.st10{font-family:'Arial-BoldMT';}
	.st11{font-size:5.0777px;}
	.st12{fill:#013220;stroke:#000000;stroke-width:0.75;stroke-miterlimit:10;}
</style>
<g>
	<rect x="49.18" y="33.27" class="st0" width="0.69" height="0.24"/>
	<g>
		<g>
			<g>
				<path class="st1" d="M37.48,63.58c-4.93,0-9.63-1.07-13.98-3.17l-0.08-0.04H12.08c-0.21-0.19-0.42-0.38-0.63-0.57
					C4.31,53.21,0.38,44.42,0.38,35.04c0-19.16,16.64-34.75,37.1-34.75c20.46,0,37.1,15.59,37.1,34.75
					c0,9.36-3.91,18.14-11.02,24.72L63.5,59.8c-0.21,0.19-0.42,0.38-0.63,0.57H51.53l-0.08,0.04C47.11,62.51,42.4,63.58,37.48,63.58
					z"/>
				<path class="st2" d="M37.48,0.66c20.25,0,36.73,15.42,36.73,34.37c0,9.25-3.87,17.92-10.9,24.44l0,0l-0.05,0.05
					c-0.17,0.16-0.34,0.31-0.52,0.47H51.62h-0.17l-0.15,0.07c-4.3,2.08-8.94,3.13-13.81,3.13s-9.52-1.05-13.81-3.13l-0.15-0.07
					h-0.17H12.22c-0.18-0.16-0.35-0.31-0.52-0.47C4.64,53.01,0.75,44.31,0.75,35.04C0.75,16.08,17.22,0.66,37.48,0.66 M37.48-0.09
					C16.78-0.09,0,15.64,0,35.04c0,9.8,4.28,18.67,11.19,25.04c0.25,0.23,0.49,0.45,0.75,0.67h11.39c4.24,2.05,9.04,3.21,14.14,3.21
					s9.9-1.16,14.14-3.21h11.39c0.25-0.22,0.5-0.44,0.74-0.67c0,0,0,0,0,0c6.91-6.37,11.19-15.23,11.19-25.04
					C74.95,15.64,58.17-0.09,37.48-0.09L37.48-0.09z"/>
			</g>
			<g>
				<path class="st1" d="M37.48,63.58c-4.93,0-9.63-1.07-13.98-3.17C13.32,55.48,7,45.76,7,35.04C7,19.3,20.67,6.5,37.48,6.5
					c16.81,0,30.48,12.8,30.48,28.54c0,10.72-6.32,20.44-16.5,25.37C47.11,62.51,42.4,63.58,37.48,63.58z"/>
				<path class="st2" d="M37.48,6.87c16.6,0,30.1,12.63,30.1,28.16c0,10.58-6.24,20.17-16.29,25.03c-4.3,2.08-8.94,3.13-13.81,3.13
					s-9.52-1.05-13.81-3.13C13.61,55.2,7.37,45.61,7.37,35.04C7.37,19.51,20.88,6.87,37.48,6.87 M37.48,6.12
					c-17.04,0-30.85,12.95-30.85,28.91c0,11.19,6.79,20.9,16.71,25.71c4.24,2.05,9.04,3.21,14.14,3.21s9.9-1.16,14.14-3.21
					c9.93-4.81,16.71-14.51,16.71-25.71C68.33,19.07,54.52,6.12,37.48,6.12L37.48,6.12z"/>
			</g>
		</g>
		<g>
			<path class="st3" d="M57.61,36.36c-0.31,1.88-1.04,3.62-2.2,5.22c-2.09,2.87-5.02,4.94-8.21,6.77c-2.36,1.35-4.94,2.3-7.5,3.31
				c-1.21,0.48-2.24,0.54-3.45-0.02c-2.1-0.97-4.35-1.68-6.4-2.71c-3.36-1.69-6.41-3.76-8.72-6.55c-1.81-2.2-2.87-4.64-2.91-7.06
				c0.03-1.96,0.42-3.54,0.99-5.09c0.87-2.37,1.83-4.71,2.65-7.09c0.84-2.46,1-5,0.81-7.55c-0.04-0.57-0.14-1.14-0.18-1.71
				c-0.04-0.59,0.19-0.78,0.83-0.66c2.07,0.39,4.18,0.43,6.28,0.38c2.12-0.06,4.22-0.29,6.27-0.82c0.6-0.16,1.21-0.3,1.82-0.43
				c0.18-0.04,0.4-0.04,0.58,0.02c3.41,0.96,6.89,1.39,10.47,1.22c1.27-0.06,2.53-0.22,3.8-0.34c0.86-0.08,1.05,0.09,0.91,0.84
				c-0.54,3.07-0.37,6.12,0.64,9.1c0.81,2.38,1.79,4.72,2.63,7.1C57.42,32.24,57.96,34.25,57.61,36.36z"/>
			<path class="st3" d="M53.87,35.51c-0.25,1.5-0.84,2.89-1.78,4.17c-1.69,2.29-4.06,3.95-6.65,5.4c-1.91,1.08-4,1.83-6.07,2.64
				c-0.98,0.38-1.81,0.43-2.79-0.01c-1.7-0.77-3.52-1.34-5.18-2.16c-2.72-1.35-5.19-3-7.05-5.23c-1.47-1.75-2.32-3.7-2.35-5.64
				c0.02-1.57,0.34-2.83,0.8-4.06c0.7-1.89,1.48-3.76,2.14-5.66c0.68-1.96,0.81-3.99,0.66-6.03c-0.04-0.45-0.11-0.91-0.14-1.36
				c-0.03-0.47,0.15-0.63,0.67-0.53c1.68,0.31,3.38,0.34,5.08,0.3c1.72-0.04,3.42-0.23,5.07-0.66c0.49-0.13,0.98-0.24,1.47-0.34
				c0.15-0.03,0.32-0.03,0.47,0.01c2.76,0.77,5.58,1.11,8.47,0.97c1.03-0.05,2.05-0.18,3.08-0.27c0.7-0.07,0.85,0.07,0.74,0.67
				c-0.44,2.45-0.3,4.89,0.52,7.27c0.66,1.9,1.45,3.77,2.13,5.67C53.71,32.23,54.15,33.83,53.87,35.51z"/>
			<g>
				<path class="st4" d="M37.3,28.18c-0.11,0.62-0.01,1.25,0.21,1.87c0.06,0.17-0.01,0.43-0.07,0.62c-0.38,1.15-0.79,2.29-1.18,3.44
					c-0.08,0.24-0.18,0.29-0.38,0.19c-0.91-0.43-1.8-0.3-2.68,0.13c-1.13,0.55-2.25,1.09-3.38,1.62c-0.11,0.05-0.25,0.06-0.38,0.04
					c-0.73-0.1-0.92-0.3-0.59-1.22c0.72-2.05,1.4-4.13,2.08-6.2c0.11-0.35,0.2-0.54,0.55-0.32c0.46,0.3,0.95,0.23,1.42-0.04
					c0.69-0.4,1.37-0.79,2.07-1.17c0.49-0.27,1-0.37,1.53-0.23C37.06,27.06,37.3,27.4,37.3,28.18z"/>
				<path class="st5" d="M41.07,29.55c-0.54,0.67-0.91,1.49-1.73,1.48c-0.23,0-0.3,0.12-0.39,0.35c-0.48,1.16-0.98,2.3-1.48,3.44
					c-0.49,1.13-1,2.25-1.5,3.38c-0.29,0.64-0.34,0.66-0.87,0.17c0.24-0.7,0.48-1.42,0.73-2.12c0.64-1.82,1.27-3.65,1.93-5.47
					c0.14-0.39,0.17-0.68,0.01-1.1c-0.15-0.39-0.1-0.9-0.13-1.37c-0.01-0.17-0.01-0.35,0.01-0.52c0.01-0.15,0.02-0.36,0.1-0.43
					c0.07-0.06,0.24,0,0.34,0.07c0.76,0.53,1.52,1.07,2.28,1.61C40.58,29.2,40.78,29.35,41.07,29.55z"/>
				<path class="st6" d="M27.98,37.96c-0.35-0.1-0.71-0.17-1.05-0.3c-0.23-0.08-0.28-0.29-0.17-0.59c0.96-2.56,1.91-5.12,2.87-7.67
					c0.05-0.12,0.2-0.17,0.31-0.26c0.01,0.14,0.05,0.31,0.02,0.42c-0.67,2.06-1.36,4.11-2.04,6.16c-0.19,0.56-0.14,0.64,0.32,0.84
					c0.72,0.3,1.38-0.01,2.03-0.31c0.82-0.38,1.62-0.79,2.44-1.18c0.96-0.45,1.93-0.62,2.94-0.31c0.26,0.08,0.33,0.19,0.22,0.51
					c-0.26,0.78-0.25,0.77-0.91,0.66c-1.05-0.17-2.07,0.01-3.06,0.42c-1,0.41-1.98,0.91-2.98,1.35
					C28.61,37.84,28.3,37.88,27.98,37.96z"/>
				<path class="st7" d="M28.69,37.8c1.18-0.05,2.16-0.85,3.23-1.32c1.18-0.52,2.38-0.76,3.71-0.34c-0.19,0.57-0.37,1.12-0.57,1.65
					c-0.03,0.08-0.19,0.12-0.28,0.12c-1.96,0.02-3.93,0.04-5.89,0.05c-0.07,0-0.13-0.03-0.2-0.04
					C28.69,37.88,28.69,37.84,28.69,37.8z"/>
				<path class="st8" d="M40.81,27.54c0.37,0.06,0.54-0.11,0.61-0.61h-0.33c-0.01-0.07-0.03-0.11-0.02-0.15
					c0.01-0.07,0.01-0.15,0.04-0.21c0.41-0.79,0.31-1.64,0.22-2.51c-0.07-0.66-0.31-1.35,0.05-2.01c-0.36,0.24-0.5,0.66-0.51,1.1
					c-0.02,0.56-0.03,1.1-0.38,1.52c-0.22,0.26-0.42,0.54-0.65,0.77c-0.06,0.06-0.22-0.02-0.33-0.05c-0.05-0.01-0.11-0.09-0.15-0.07
					c-0.37,0.19-0.78,0.32-1.1,0.6c-0.35,0.3-0.34,1.23-0.03,1.45c0.75,0.53,1.51,1.02,2.28,1.51c0.09,0.06,0.24-0.01,0.43-0.03
					c-0.31-0.21-0.51-0.34-0.74-0.5c0.16-0.17,0.29-0.31,0.45-0.48c-0.26-0.02-0.46-0.04-0.73-0.06
					C40.21,27.28,40.54,27.5,40.81,27.54z M39.42,27.47c-0.02-0.12-0.04-0.23-0.07-0.43c-0.23,0.1-0.45,0.2-0.61,0.28
					c-0.17-0.14-0.36-0.22-0.43-0.38c-0.06-0.15-0.04-0.41,0.02-0.58c0.06-0.16,0.21-0.29,0.34-0.36c0.09-0.05,0.23,0.02,0.34,0.03
					c0.31,0.01,0.61,0,0.94,0c-0.01,0.09-0.03,0.21-0.05,0.39c0.17-0.01,0.3-0.02,0.44-0.04C40.27,27,39.98,27.34,39.42,27.47z"/>
				<path class="st8" d="M39.91,26.41c0.17-0.01,0.3-0.02,0.44-0.04c-0.07,0.63-0.36,0.97-0.92,1.09c-0.02-0.12-0.04-0.23-0.07-0.43
					c-0.23,0.1-0.45,0.2-0.61,0.27c-0.17-0.14-0.36-0.22-0.43-0.38c-0.06-0.15-0.04-0.41,0.02-0.58c0.06-0.16,0.21-0.29,0.34-0.36
					c0.09-0.05,0.23,0.02,0.34,0.03c0.31,0.01,0.61,0,0.94,0C39.94,26.11,39.93,26.23,39.91,26.41z"/>
				<g>
					<g>
						<path class="st2" d="M39.06,39.08c0.2-0.1,0.41-0.29,0.61-0.63c0.14-0.24,0.28-0.49,0.4-0.74c0.13-0.27-0.03-0.55-0.09-0.64
							l-0.26-0.43c0.04-0.08,0.07-0.15,0.11-0.23c0.06-0.12,0.07-0.25,0.07-0.37l0.29-0.18c0.14-0.08,0.27-0.17,0.41-0.26
							c0.27-0.18,0.53-0.34,0.79-0.46c0.2-0.09,0.4-0.13,0.62-0.13c0.49,0,1.01,0.22,1.5,0.43c0.39,0.16,0.77,0.34,1.15,0.52
							c-0.44-0.16-0.88-0.29-1.35-0.37c-0.25-0.04-0.51-0.06-0.76-0.06c-0.48,0-0.91,0.09-1.31,0.28l-1.18,0.55l1.44,0.18
							c0.28-0.04,0.48-0.05,0.67-0.05c1.16,0,2.22,0.5,3.49,1.16c0.18,0.09,0.35,0.17,0.53,0.25c-1.87-0.02-3.75-0.04-5.62-0.07h0
							c-0.5,0-0.59,0.4-0.63,0.56c-0.05,0.2-0.1,0.4-0.15,0.6l-0.35,0.04C39.33,39.04,39.08,39.08,39.06,39.08z M48.58,37.6
							c-0.46,0-0.94-0.15-1.57-0.49c0,0-0.32-0.17-0.34-0.18c0.34,0.13,0.68,0.2,1,0.2c0.27,0,0.54-0.05,0.8-0.14
							c0.41-0.15,0.58-0.37,0.61-0.62l0.31,0.84c0.03,0.08,0.05,0.13,0.06,0.16c-0.02,0.01-0.04,0.02-0.08,0.04
							C49.12,37.54,48.86,37.6,48.58,37.6z M38.49,35.82C38.49,35.82,38.49,35.82,38.49,35.82c0.01,0,0.02-0.03,0.04-0.08l0.07-0.17
							c0.53-1.2,1.05-2.39,1.6-3.58c0.01-0.02,0.1-0.06,0.15-0.09c0.19-0.11,0.3-0.17,0.41-0.23c0.2-0.11,0.41-0.22,0.6-0.36
							c0.19-0.14,0.34-0.31,0.48-0.48l0.14-0.16c0.36-0.39,0.45-0.95,0.24-1.44c0,0,0.32-0.74,0.43-1.01
							c0.25,0.2,0.52,0.34,0.78,0.48l0.09,0.05c0.3,0.16,0.6,0.24,0.89,0.24c0.27,0,0.53-0.07,0.77-0.21
							c0.55,1.64,1.76,5.26,1.76,5.26l0.47,1.38c0.05,0.14,0.06,0.21,0.06,0.24c-0.01,0-0.04,0.02-0.1,0.04
							c-0.13,0.05-0.26,0.07-0.41,0.07c-0.25,0-0.52-0.07-0.85-0.22c-0.3-0.14-0.6-0.28-0.91-0.42c-0.66-0.31-1.35-0.63-2.04-0.9
							c-0.48-0.19-0.97-0.28-1.43-0.28c-0.6,0-1.18,0.16-1.72,0.47c-0.45,0.25-0.61,0.49-0.53,0.87l-0.21-0.06l-0.28,0.25
							l-0.36,0.77C38.6,36.11,38.54,35.97,38.49,35.82z"/>
						<path d="M42.83,28.8c0.15,0.09,0.29,0.16,0.44,0.24l0.09,0.05c0.36,0.19,0.72,0.29,1.07,0.29c0.19,0,0.37-0.03,0.55-0.08
							c0.49,1.46,0.98,2.92,1.47,4.39l0.17,0.5c0.13,0.38,0.26,0.76,0.39,1.14l0.03,0.09c-0.01,0-0.02,0-0.04,0
							c-0.19,0-0.42-0.06-0.7-0.19c-0.3-0.14-0.61-0.28-0.91-0.42c-0.67-0.31-1.35-0.63-2.06-0.9c-0.53-0.2-1.05-0.31-1.56-0.31
							c-0.66,0-1.31,0.17-1.91,0.51c-0.09,0.05-0.18,0.11-0.26,0.17c0.3-0.67,0.6-1.35,0.91-2.01c0.01-0.01,0.03-0.02,0.04-0.02
							l0.09-0.05c0.1-0.06,0.21-0.12,0.32-0.18c0.2-0.11,0.42-0.23,0.64-0.38c0.22-0.16,0.39-0.36,0.54-0.54
							c0.04-0.05,0.09-0.1,0.13-0.15c0.42-0.46,0.55-1.1,0.37-1.68l0.03-0.07C42.71,29.06,42.77,28.93,42.83,28.8 M40.23,36.76
							l1.07,0.14c0.07,0.01,0.14,0.02,0.21,0.02l0.08,0l0.06-0.01c0.18-0.03,0.36-0.04,0.54-0.04c0.78,0,1.53,0.25,2.35,0.63
							c-1.32-0.01-2.63-0.03-3.96-0.05c-0.02,0-0.05,0-0.08,0c-0.01-0.16-0.06-0.35-0.19-0.57L40.23,36.76 M48.98,37.16
							C48.98,37.16,48.98,37.17,48.98,37.16c-0.01,0.01-0.02,0.02-0.03,0.02C48.96,37.17,48.97,37.17,48.98,37.16 M42.58,27.79
							c-0.11,0-0.18,0.09-0.25,0.27c-0.16,0.4-0.34,0.79-0.51,1.2c0.22,0.38,0.19,0.85-0.11,1.17c-0.18,0.2-0.36,0.43-0.56,0.58
							c-0.29,0.21-0.6,0.35-0.9,0.53c-0.13,0.08-0.31,0.16-0.38,0.31c-0.57,1.24-1.12,2.49-1.67,3.75c-0.04,0.1-0.09,0.24-0.07,0.33
							c0.15,0.42,0.32,0.82,0.51,1.28c0.26-0.57,0.49-1.06,0.72-1.55c0.05,0.01,0.1,0.03,0.15,0.04c0,0.19,0.06,0.43-0.01,0.57
							c-0.27,0.57-0.58,1.1-0.88,1.66c-0.19-0.48-0.41-1.03-0.63-1.59c-0.37,0.35-0.49,0.7-0.33,0.96c0.19,0.31,0.39,0.62,0.58,0.93
							c0.17,0.26,0.3,0.4,0.42,0.4c0.13,0,0.26-0.15,0.43-0.44c0.18-0.31,0.38-0.6,0.57-0.89c0.08,0.13,0.1,0.22,0.07,0.28
							c-0.12,0.25-0.26,0.49-0.39,0.72c-0.21,0.37-0.47,0.55-0.73,0.55c-0.28,0-0.56-0.22-0.75-0.66c-0.12-0.27-0.23-0.56-0.36-0.85
							c-0.45,0.63-0.45,0.63-0.08,1.23c0.03,0.05,0.05,0.1,0.08,0.15c0.25,0.49,0.6,0.79,1.06,0.81c0.03,0,0.06,0,0.09,0
							c0.26,0,0.53-0.06,0.85-0.1c-0.29,0.71-0.57,1.39-0.85,2.07c0.03,0.02,0.05,0.04,0.08,0.07c0.18-0.2,0.36-0.41,0.58-0.66
							c0.02,0.31,0.04,0.52,0.05,0.73c0.05-0.01,0.08-0.01,0.1-0.02c0.04-0.05,0.08-0.11,0.1-0.18c0.26-0.96,0.52-1.91,0.76-2.88
							c0.05-0.2,0.06-0.33,0.27-0.33c0,0,0.01,0,0.01,0c2.36,0.04,4.72,0.06,7.08,0.09c0,0,0,0,0.01,0c0.1,0,0.21-0.03,0.35-0.04
							c-0.06-0.08-0.07-0.11-0.09-0.12c-0.06-0.02-0.11-0.03-0.17-0.05c-0.64-0.25-1.3-0.44-1.92-0.76c-1.19-0.61-2.37-1.2-3.66-1.2
							c-0.21,0-0.43,0.02-0.65,0.05c-0.01,0-0.01,0-0.02,0c-0.03,0-0.07-0.01-0.1-0.01c0.38-0.18,0.76-0.24,1.15-0.24
							c0.23,0,0.47,0.02,0.7,0.06c1.26,0.19,2.41,0.85,3.57,1.47c0.57,0.3,1.15,0.53,1.75,0.53c0.31,0,0.63-0.06,0.96-0.21
							c0.35-0.16,0.37-0.25,0.22-0.67c-0.66-1.75-1.3-3.51-1.96-5.26c-0.3-0.8-0.6-1.59-0.91-2.38c-0.04-0.1-0.17-0.15-0.26-0.22
							c-0.01,0.13-0.06,0.28-0.03,0.38c0.68,2.09,1.37,4.17,2.05,6.26c0.16,0.47,0.11,0.62-0.3,0.77c-0.23,0.08-0.45,0.12-0.67,0.12
							c-0.36,0-0.72-0.1-1.07-0.26c-0.98-0.46-1.95-0.97-2.94-1.39c-0.54-0.23-1.09-0.46-1.65-0.46c-0.25,0-0.51,0.05-0.77,0.16
							C40.82,35,40.43,35.29,40,35.55c-0.23-0.46-0.2-0.55,0.22-0.79c0.5-0.29,1.02-0.42,1.54-0.42c0.43,0,0.87,0.09,1.29,0.26
							c0.99,0.38,1.95,0.87,2.92,1.31c0.33,0.15,0.67,0.25,1.01,0.25c0.18,0,0.35-0.03,0.53-0.09c0.36-0.13,0.42-0.31,0.27-0.75
							c-0.16-0.46-0.31-0.92-0.47-1.37c-0.6-1.78-1.2-3.57-1.79-5.36c-0.06-0.17-0.12-0.26-0.22-0.26c-0.05,0-0.11,0.02-0.18,0.07
							c-0.23,0.16-0.46,0.23-0.7,0.23c-0.24,0-0.48-0.07-0.72-0.2c-0.31-0.17-0.63-0.33-0.91-0.54
							C42.71,27.82,42.64,27.79,42.58,27.79L42.58,27.79z"/>
					</g>
					<line class="st9" x1="46.91" y1="29.45" x2="49.74" y2="37.07"/>
				</g>
			</g>
		</g>
		<g>
			<g>
				<path d="M56.2,45.57c-12.73,10.02-25.4,9.61-38.08-0.01c-1.13,1.68-2.21,3.29-3.41,5.08c6.85,4.71,14,8.07,22.18,8.16
					c8.41,0.09,15.75-3.29,22.75-8.13C58.43,48.87,57.33,47.23,56.2,45.57z M40.06,57.85c-8.9,0.82-16.87-2.21-24.42-7.38
					c0.08-0.12,0.16-0.25,0.24-0.37c0.04-0.05,0.07-0.11,0.1-0.16c0.06-0.1,0.13-0.2,0.19-0.29c0.11-0.17,0.22-0.33,0.33-0.5
					c0.04-0.07,0.09-0.13,0.13-0.2c0.11-0.17,0.22-0.34,0.33-0.5c0.07-0.11,0.15-0.22,0.22-0.33c0.05-0.07,0.09-0.14,0.13-0.2
					c0.04-0.07,0.09-0.13,0.13-0.2c0.14-0.21,0.27-0.42,0.41-0.63c0.02-0.03,0.04-0.07,0.07-0.1c0.02-0.03,0.04-0.06,0.06-0.08
					c0.02-0.03,0.04-0.05,0.06-0.07c0.01-0.01,0.02-0.02,0.03-0.03c0.07-0.07,0.14-0.11,0.2-0.13c0.01,0,0.02-0.01,0.03-0.01
					c0.01,0,0.02,0,0.03-0.01c0.01,0,0.02,0,0.03,0c0.2-0.02,0.41,0.13,0.64,0.3c0.1,0.08,0.21,0.15,0.31,0.22
					c0.23,0.17,0.46,0.33,0.7,0.49c0.08,0.06,0.17,0.11,0.25,0.17c0.12,0.08,0.24,0.16,0.36,0.24c0.07,0.04,0.13,0.09,0.2,0.13
					c0.07,0.04,0.13,0.09,0.2,0.13c0.08,0.05,0.16,0.1,0.24,0.16c0.29,0.19,0.58,0.37,0.88,0.54c0.06,0.04,0.13,0.08,0.19,0.12
					c0.08,0.05,0.15,0.09,0.23,0.14c0.08,0.05,0.16,0.09,0.24,0.14c0.34,0.2,0.69,0.39,1.04,0.58c0.11,0.06,0.22,0.12,0.33,0.18
					c0.2,0.1,0.4,0.2,0.6,0.3c0.2,0.1,0.4,0.2,0.6,0.29c0.1,0.05,0.2,0.1,0.3,0.14c0.1,0.05,0.2,0.09,0.31,0.14
					c0.1,0.05,0.2,0.09,0.31,0.14c0.1,0.04,0.21,0.09,0.31,0.13c0.21,0.09,0.41,0.17,0.62,0.25c0.1,0.04,0.21,0.08,0.31,0.12
					c0.31,0.12,0.63,0.24,0.95,0.35c0.1,0.03,0.19,0.07,0.29,0.1c0.16,0.06,0.33,0.11,0.49,0.16c0.01,0,0.01,0,0.02,0
					c0.05,0.02,0.1,0.03,0.15,0.05c0.08,0.03,0.16,0.05,0.25,0.08c0.08,0.03,0.17,0.05,0.25,0.08c0.1,0.03,0.19,0.06,0.29,0.08
					c0.08,0.02,0.17,0.05,0.25,0.07c0.01,0,0.02,0.01,0.04,0.01c0.1,0.03,0.19,0.05,0.29,0.08c0.11,0.03,0.23,0.06,0.34,0.09
					c0.08,0.02,0.16,0.04,0.24,0.06c0.1,0.02,0.19,0.05,0.29,0.07c0.07,0.02,0.14,0.03,0.21,0.05c0.06,0.01,0.13,0.03,0.19,0.04
					c0.02,0,0.03,0.01,0.05,0.01c0.06,0.01,0.12,0.03,0.18,0.04c0.14,0.03,0.28,0.06,0.42,0.08c0.07,0.01,0.14,0.03,0.21,0.04
					c0.16,0.03,0.32,0.06,0.47,0.08c0.09,0.02,0.19,0.03,0.28,0.05c0.08,0.01,0.17,0.03,0.25,0.04c0.06,0.01,0.12,0.02,0.18,0.03
					c0.25,0.04,0.5,0.07,0.75,0.1c0.05,0.01,0.11,0.01,0.16,0.02c0.07,0.01,0.15,0.02,0.22,0.02c0.06,0.01,0.12,0.01,0.18,0.02
					c0.17,0.01,0.33,0.03,0.5,0.04c0.06,0,0.12,0.01,0.19,0.01c0.06,0,0.12,0.01,0.17,0.01c0.08,0,0.16,0.01,0.24,0.01
					c0.01,0,0.01,0,0.02,0c0.09,0,0.17,0.01,0.26,0.01c0.01,0,0.02,0,0.03,0c0.06,0,0.12,0,0.18,0c0.05,0,0.09,0,0.14,0
					c0.03,0,0.06,0,0.09,0c0.06,0,0.13,0,0.19,0c1.1,0.01,2.2-0.05,3.3-0.19c0.1-0.01,0.19-0.02,0.29-0.04
					c0.08-0.01,0.16-0.02,0.24-0.04c0.03,0,0.06-0.01,0.09-0.01c0.08-0.01,0.17-0.03,0.25-0.04c0.1-0.02,0.19-0.03,0.29-0.05
					c0.1-0.02,0.19-0.03,0.29-0.05c0.17-0.03,0.35-0.07,0.52-0.1c0.25-0.05,0.5-0.11,0.75-0.17c0.09-0.02,0.17-0.04,0.25-0.06
					c0.02-0.01,0.05-0.01,0.08-0.02c0.06-0.02,0.12-0.03,0.19-0.05c0.06-0.01,0.12-0.03,0.17-0.05c0.03-0.01,0.07-0.02,0.1-0.03
					c0.08-0.02,0.15-0.04,0.23-0.06c0.05-0.02,0.11-0.03,0.16-0.05c0.02-0.01,0.05-0.01,0.07-0.02c0.06-0.02,0.12-0.04,0.18-0.05
					c0.08-0.02,0.16-0.05,0.23-0.07c0.08-0.02,0.16-0.05,0.23-0.08c0.08-0.03,0.16-0.05,0.23-0.08c0.12-0.04,0.25-0.08,0.37-0.13
					c0.06-0.02,0.13-0.04,0.19-0.07c0.05-0.02,0.09-0.03,0.14-0.05c0.08-0.03,0.16-0.06,0.25-0.09c0.05-0.02,0.09-0.04,0.14-0.05
					c0.08-0.03,0.17-0.06,0.25-0.1c0.1-0.04,0.2-0.08,0.3-0.12c0.04-0.02,0.08-0.03,0.12-0.05c0.09-0.04,0.17-0.07,0.26-0.11
					c0.1-0.04,0.2-0.09,0.3-0.13c0.09-0.04,0.18-0.08,0.28-0.13c0.05-0.02,0.1-0.05,0.16-0.07c0.09-0.04,0.19-0.09,0.28-0.13
					c0.15-0.07,0.3-0.15,0.45-0.22c0.15-0.08,0.3-0.15,0.44-0.23c0.15-0.08,0.29-0.16,0.44-0.24c0.07-0.04,0.15-0.08,0.22-0.12
					c0.07-0.04,0.15-0.08,0.22-0.12c0.4-0.23,0.8-0.47,1.19-0.71c0.11-0.07,0.21-0.13,0.32-0.2c0.64-0.4,1.28-0.82,1.92-1.23
					c0.28-0.18,0.57-0.37,0.85-0.55c0,0,0,0,0,0c0.29-0.18,0.57-0.36,0.86-0.53c0,0,0,0,0,0c0.18-0.11,0.37-0.22,0.6-0.36
					c0.02-0.01,0.03-0.02,0.05-0.03c0.09,0.14,0.19,0.28,0.28,0.42c0.19,0.28,0.38,0.56,0.56,0.83c0.15,0.22,0.29,0.44,0.44,0.66
					c0.14,0.2,0.27,0.4,0.41,0.61c0.19,0.29,0.39,0.57,0.59,0.87c0.11,0.17,0.23,0.34,0.35,0.51
					C52.97,54.53,46.83,57.22,40.06,57.85z"/>
				<path class="st2" d="M20.29,46.33c-0.55-0.39-1.11-0.75-1.63-1.16c-0.42-0.33-0.67-0.26-0.96,0.2
					c-0.65,0.99-1.35,1.94-2.12,3.03c-2.13-1.49-4.25-2.98-6.54-4.58c0.76-0.25,1.35-0.44,2.02-0.66c-0.33-0.7-0.63-1.33-0.98-2.09
					h2.27c-0.06-0.64-0.11-1.16-0.19-1.93c1.1,0.75,2.06,1.39,3.01,2.05c1.67,1.16,3.31,2.36,5,3.49
					C20.89,45.17,20.93,45.63,20.29,46.33z"/>
				<path class="st2" d="M65.32,43.81c-2.2,1.56-4.3,3.05-6.52,4.62c-0.84-1.19-1.67-2.36-2.55-3.6c-0.8,0.57-1.46,1.03-2.15,1.52
					c-0.5-0.53-0.85-0.96-0.05-1.52c2.56-1.77,5.09-3.57,7.65-5.36c0.12-0.09,0.29-0.1,0.55-0.19c-0.1,0.63-0.19,1.14-0.28,1.74
					h2.33c-0.34,0.77-0.63,1.41-0.97,2.17C63.96,43.39,64.55,43.57,65.32,43.81z"/>
				<path class="st1" d="M15.64,50.47c0.83-1.27,1.56-2.37,2.28-3.49c0.36-0.55,0.69-0.32,1.08-0.03c2.95,2.15,6.08,3.91,9.48,5.09
					c6.79,2.37,13.52,2.22,20.06-0.92c2.4-1.15,4.61-2.77,6.91-4.17c0.19-0.12,0.39-0.23,0.65-0.39c0.86,1.28,1.7,2.52,2.63,3.9
					c-5.76,4.06-11.89,6.76-18.67,7.38C31.16,58.67,23.19,55.64,15.64,50.47z"/>
			</g>
			<path id="SVGID_x5F_1_x5F_" class="st0" d="M15.4,49.25c1.99,1.42,4.84,3.24,8.48,4.86c3.76,1.67,7.6,3.38,12.72,3.5
				c6.35,0.14,11.21-2.24,14.46-3.84c2.89-1.42,5.14-2.95,6.66-4.09"/>
			<text>			<textPath  xlink:href="#SVGID_x5F_1_x5F_" startOffset="3.418%">
<tspan  class="st10" style="font-size:4.0936px;">LUMEN TUUM FULGEAT</tspan>			</textPath>
</text>
		</g>
		<text transform="matrix(0.8569 0 0 1 9.5571 31.2358)" class="st10 st11">19</text>
		<text transform="matrix(1.2529 0 0 1 58.6558 31.2251)" class="st10 st11">53</text>
		<path id="SVGID_x5F_2_x5F_" class="st0" d="M51.74,61.5c-0.81,0.34-18.54,7.39-33.24-2.66c-9.91-6.77-12-16.92-12.33-18.65
			c-2.33-12.38,4.67-21.45,5.85-22.94c1.1-1.38,8.88-10.78,22.87-11.82c1.39-0.1,16.38-0.97,26.64,10.34
			c7.78,8.58,9.05,19.99,5.75,29.03c-2.3,6.31-6.45,10.4-8.85,12.45"/>
		<text>		<textPath  xlink:href="#SVGID_x5F_2_x5F_" startOffset="28.9307%">
<tspan  class="st2" style="font-family:'Arial-Black'; font-size:4.82px;">SEVENTH-DAY ADVENTIST SHS</tspan>		</textPath>
</text>
		<path class="st9" d="M63.76,60.07C63.76,60.07,63.76,60.07,63.76,60.07c-0.04,0.03-0.43,0.27-1.11,0.67"/>
		<path class="st9" d="M11.94,60.74c-0.25-0.22-0.5-0.44-0.75-0.67"/>
		<path class="st12" d="M63.01,60.74c-6.65,5.8-15.54,9.37-25.33,9.41c-0.07,0-0.14,0-0.2,0c-9.87,0-18.84-3.57-25.53-9.41h11.39
			c4.24,2.05,9.04,3.21,14.14,3.21s9.9-1.16,14.14-3.21H63.01z"/>
		<path class="st1" d="M39.66,60.78c2.19,0,2.29,2.15,0.1,2.23c-0.56,0.02-1.12,0.03-1.69,0.03s-1.13-0.01-1.69-0.03
			c-2.18-0.08-2.08-2.23,0.1-2.23H39.66z"/>
		<path id="SVGID_x5F_3_x5F_" class="st0" d="M19.5,64.4c2.84,1.49,7.16,3.31,12.73,4.1c3.15,0.45,9.7,1,17.34-1.34
			c4.67-1.43,8.17-3.46,10.43-5"/>
		<text>		<textPath  xlink:href="#SVGID_x5F_3_x5F_" startOffset="2.5187%">
<tspan  class="st1" style="font-family:'Arial-Black'; font-size:4.796px; letter-spacing:72.1;">BEKWAI</tspan>		</textPath>
</text>
	</g>
</g>
</svg>
