<?xml version="1.0" encoding="utf-8"?>
<!-- Generator: Adobe Illustrator 24.2.3, SVG Export Plug-In . SVG Version: 6.00 Build 0)  -->
<svg version="1.1" id="Layer_1" xmlns="http://www.w3.org/2000/svg" xmlns:xlink="http://www.w3.org/1999/xlink" x="0px" y="0px"
	 viewBox="0 0 2000 943" style="enable-background:new 0 0 2000 943;" xml:space="preserve">
<style type="text/css">
	.st0{fill:#FFFFFF;}
	.st1{fill:#013220;}
	.st2{fill:#FFFFFF;stroke:#013220;stroke-width:14;stroke-miterlimit:10;}
	.st3{fill:#FFFFFF;stroke:#013220;stroke-width:7;stroke-miterlimit:10;}
	.st4{fill:#013220;stroke:#FFFFFF;stroke-width:6;stroke-miterlimit:10;}
	.st5{fill:#070707;stroke:#42210B;stroke-width:6;stroke-miterlimit:10;}
	.st6{fill:#070707;stroke:#110B07;stroke-width:6;stroke-miterlimit:10;}
	.st7{fill:#161616;stroke:#FFFFFF;stroke-width:2;stroke-miterlimit:10;}
	.st8{fill:#FFFF00;stroke:#D4145A;stroke-miterlimit:10;}
	.st9{fill:none;stroke:#000000;stroke-miterlimit:10;}
	.st10{fill:none;}
	.st11{font-family:'ArialMT';}
	.st12{font-size:11.3639px;}
	.st13{font-family:'Arial-BoldMT';}
	.st14{font-size:54.9686px;}
	.st15{font-size:68.1832px;}
	.st16{font-family:'Arial-Black';}
	.st17{font-size:64.3953px;}
	.st18{fill:none;stroke:#000000;stroke-width:2;stroke-miterlimit:10;}
	.st19{fill:#013220;stroke:#000000;stroke-miterlimit:10;}
	.st20{letter-spacing:72;}
	.st21{font-size:141.1241px;}
	.st22{letter-spacing:12.29;}
</style>
<g>
	<g>
		<g>
			<path class="st0" d="M486.07,853.19c-61.67,0-120.51-14.25-174.91-42.35l-1.43-0.74H167.35c-2.35-2.21-4.77-4.55-7.38-7.1
				c-43.5-42.79-77.68-92.82-101.59-148.69C33.64,596.48,21.1,535,21.1,471.56c0-62.78,12.29-123.67,36.53-180.99
				c23.42-55.37,56.94-105.1,99.65-147.8c42.7-42.7,92.43-76.23,147.8-99.65C362.4,18.88,423.29,6.59,486.07,6.59
				s123.67,12.29,180.99,36.53c55.37,23.42,105.1,56.94,147.8,99.65c42.7,42.7,76.23,92.43,99.65,147.8
				c24.24,57.32,36.53,118.21,36.53,180.99c0,63.44-12.55,124.93-37.29,182.76C889.92,710,855.89,759.89,812.57,802.61l-0.03,0.02
				l-0.44,0.43c-2.33,2.3-4.73,4.62-7.33,7.06H662.41l-1.43,0.74C606.58,838.94,547.74,853.19,486.07,853.19z"/>
			<path class="st1" d="M486.07,13.21c61.89,0,121.91,12.11,178.4,36.01c54.58,23.09,103.6,56.14,145.69,98.23
				c42.09,42.09,75.14,91.12,98.23,145.69c23.9,56.5,36.01,116.52,36.01,178.4c0,62.54-12.37,123.16-36.75,180.16
				c-23.4,54.69-56.79,103.7-99.27,145.71l-0.03,0.02l-0.91,0.89c-1.71,1.69-3.47,3.39-5.3,5.14H664.02h-3.22l-2.86,1.48
				c-26.01,13.44-53.6,23.8-81.99,30.78c-29.24,7.19-59.48,10.83-89.88,10.83s-60.64-3.65-89.87-10.83
				c-28.39-6.98-55.98-17.34-81.99-30.78l-2.86-1.48h-3.22H169.99c-1.72-1.64-3.49-3.36-5.36-5.19
				c-42.89-42.2-76.58-91.51-100.14-146.58c-24.39-57-36.76-117.62-36.76-180.16c0-61.89,12.11-121.91,36.01-178.4
				c23.09-54.57,56.14-103.6,98.23-145.69s91.12-75.14,145.69-98.23C364.16,25.33,424.18,13.21,486.07,13.21 M486.07-0.04
				c-260.46,0-471.6,211.14-471.6,471.6c0,131.61,53.91,250.64,140.86,336.18c3.1,3.04,6.22,6.04,9.4,9h143.38
				c53.31,27.54,113.81,43.09,177.95,43.09s124.64-15.55,177.95-43.09H807.4c3.16-2.95,6.29-5.93,9.37-8.97
				c0.03-0.02,0.04-0.03,0.04-0.03c86.95-85.54,140.86-204.57,140.86-336.18C957.67,211.1,746.53-0.04,486.07-0.04L486.07-0.04z"/>
		</g>
		<g>
			<path class="st0" d="M486.07,854.14c-61.82,0-120.81-14.28-175.34-42.45c-61.43-31.73-113.22-79.58-149.79-138.37
				c-37.59-60.45-57.45-130.21-57.45-201.76c0-51.65,10.11-101.75,30.07-148.91c19.27-45.56,46.86-86.47,81.99-121.61
				s76.05-62.72,121.61-81.99c47.16-19.95,97.27-30.07,148.91-30.07c51.65,0,101.75,10.11,148.91,30.07
				c45.56,19.27,86.47,46.86,121.61,81.99s62.73,76.05,81.99,121.61c19.95,47.16,30.07,97.27,30.07,148.91
				c0,71.55-19.87,141.31-57.45,201.76c-36.56,58.8-88.35,106.65-149.79,138.37C606.88,839.86,547.89,854.14,486.07,854.14z"/>
			<path class="st1" d="M486.07,94.66c50.89,0,100.25,9.96,146.71,29.61c44.88,18.98,85.19,46.16,119.8,80.78
				c34.62,34.62,61.79,74.93,80.78,119.8c19.65,46.46,29.61,95.82,29.61,146.71c0,70.48-19.57,139.21-56.6,198.75
				c-36.02,57.93-87.05,105.07-147.57,136.33c-26.15,13.5-53.87,23.91-82.41,30.93c-29.39,7.23-59.77,10.89-90.32,10.89
				s-60.94-3.66-90.32-10.89c-28.53-7.02-56.26-17.42-82.41-30.93c-60.51-31.26-111.55-78.4-147.57-136.33
				c-37.03-59.55-56.6-128.27-56.6-198.75c0-50.89,9.96-100.25,29.61-146.71c18.98-44.88,46.16-85.19,80.78-119.8
				c34.62-34.62,74.93-61.79,119.8-80.78C385.82,104.62,435.18,94.66,486.07,94.66 M486.07,83.29
				C271.63,83.29,97.8,257.12,97.8,471.56c0,150.3,85.4,280.65,210.32,345.18c53.31,27.54,113.81,43.09,177.95,43.09
				s124.64-15.55,177.95-43.09c124.92-64.53,210.32-194.88,210.32-345.18C874.33,257.12,700.5,83.29,486.07,83.29L486.07,83.29z"/>
		</g>
	</g>
	<g>
		<path class="st2" d="M739.47,489.29c-3.9,25.22-13.08,48.59-27.75,70.08c-26.31,38.53-63.16,66.36-103.34,90.85
			c-29.72,18.13-62.22,30.83-94.33,44.44c-15.17,6.44-28.16,7.29-43.38-0.22c-26.38-12.99-54.75-22.52-80.56-36.35
			c-42.27-22.64-80.64-50.44-109.68-88c-22.8-29.51-36.13-62.28-36.58-94.87c0.34-26.33,5.28-47.55,12.44-68.3
			c10.96-31.79,23.06-63.23,33.32-95.21c10.58-33,12.63-67.08,10.26-101.4c-0.54-7.65-1.72-15.25-2.25-22.9
			c-0.53-7.89,2.34-10.52,10.4-8.91c26.11,5.19,52.59,5.79,79.02,5.07c26.67-0.75,53.13-3.87,78.89-11.03
			c7.59-2.12,15.23-4.04,22.92-5.76c2.3-0.49,5.05-0.47,7.29,0.21c42.87,12.87,86.76,18.71,131.71,16.35
			c15.99-0.83,31.89-2.95,47.83-4.59c10.85-1.13,13.15,1.17,11.51,11.23c-6.82,41.27-4.7,82.2,8.1,122.19
			c10.24,32,22.54,63.4,33.04,95.32C737.04,434.05,743.82,461.06,739.47,489.29z"/>
		<path class="st3" d="M692.36,477.98c-3.15,20.14-10.59,38.81-22.45,55.97c-21.3,30.78-51.12,52.99-83.63,72.57
			c-24.05,14.48-50.35,24.63-76.35,35.49c-12.27,5.14-22.79,5.82-35.11-0.18c-21.35-10.38-44.31-17.98-65.2-29.03
			c-34.21-18.09-65.26-40.28-88.77-70.29c-18.46-23.56-29.23-49.75-29.6-75.77c0.27-21.03,4.27-37.98,10.08-54.55
			c8.87-25.39,18.67-50.5,26.96-76.04c8.56-26.36,10.22-53.58,8.3-80.99c-0.45-6.11-1.39-12.18-1.82-18.29
			c-0.43-6.3,1.89-8.4,8.42-7.12c21.13,4.15,42.56,4.62,63.95,4.05c21.59-0.6,43-3.1,63.86-8.81c6.14-1.7,12.32-3.23,18.55-4.59
			c1.87-0.4,4.08-0.38,5.9,0.16c34.7,10.28,70.23,14.94,106.6,13.07c12.94-0.67,25.81-2.36,38.71-3.66
			c8.78-0.9,10.64,0.94,9.31,8.98c-5.52,32.96-3.81,65.65,6.55,97.59c8.29,25.56,18.24,50.64,26.74,76.14
			C690.39,433.86,695.88,455.43,692.36,477.98z"/>
		<g>
			<path class="st4" d="M483.89,379.57c-1.38,8.29-0.08,16.74,2.63,25.16c0.71,2.23-0.08,5.8-0.88,8.35
				c-4.84,15.45-9.91,30.75-14.82,46.15c-1.03,3.23-2.23,3.84-4.75,2.55c-11.4-5.81-22.64-4.02-33.78,1.77
				c-14.16,7.36-28.35,14.61-42.57,21.77c-1.45,0.73-3.2,0.82-4.75,0.6c-9.22-1.34-11.56-4.07-7.47-16.41
				c9.12-27.53,17.57-55.47,26.15-83.32c1.45-4.69,2.53-7.24,6.87-4.26c5.78,3.98,11.89,3.1,17.81-0.57
				c8.64-5.35,17.3-10.63,26.01-15.77c6.16-3.64,12.57-4.92,19.29-3.09C480.9,364.5,483.87,369.03,483.89,379.57z"/>
			<path class="st5" d="M531.25,397.96c-6.79,9.05-11.45,20.02-21.75,19.93c-2.86-0.03-3.72,1.56-4.95,4.75
				c-6,15.57-12.34,30.91-18.65,46.26c-6.22,15.15-12.57,30.22-18.84,45.35c-3.59,8.66-4.24,8.84-10.89,2.23
				c3.04-9.44,6.07-19.01,9.2-28.51c8.05-24.51,16.02-49.06,24.33-73.41c1.8-5.27,2.17-9.11,0.17-14.79
				c-1.86-5.27-1.27-12.15-1.65-18.33c-0.14-2.3-0.09-4.66,0.11-6.96c0.19-2.03,0.27-4.9,1.22-5.73c0.93-0.82,3.08-0.05,4.34,0.88
				c9.6,7.1,19.12,14.41,28.67,21.67C525.08,393.22,527.6,395.16,531.25,397.96z"/>
			<path class="st6" d="M366.55,510.89c-4.42-1.3-8.88-2.3-13.2-3.98c-2.92-1.13-3.58-3.94-2.19-7.92
				c12.05-34.34,23.98-68.75,36.09-103.05c0.57-1.62,2.58-2.32,3.91-3.45c0.09,1.91,0.69,4.11,0.2,5.7
				c-8.49,27.63-17.11,55.19-25.72,82.75c-2.34,7.49-1.82,8.59,4.02,11.23c9.07,4.09,17.33-0.1,25.57-4.18
				c10.29-5.09,20.45-10.66,30.72-15.79c12.03-5.99,24.3-8.31,37.03-4.17c3.28,1.07,4.1,2.51,2.73,6.86
				c-3.32,10.46-3.18,10.38-11.46,8.92c-13.15-2.32-26.04,0.16-38.51,5.59c-12.63,5.49-24.96,12.22-37.52,18.07
				C374.54,509.19,370.56,509.75,366.55,510.89z"/>
			<path class="st7" d="M375.54,508.7c14.85-0.69,27.22-11.37,40.66-17.68c14.88-6.97,29.92-10.23,46.65-4.62
				c-2.43,7.64-4.64,14.98-7.18,22.09c-0.38,1.07-2.33,1.55-3.56,1.57c-24.7,0.3-49.39,0.5-74.1,0.69
				c-0.81,0.01-1.64-0.35-2.45-0.54C375.55,509.7,375.55,509.2,375.54,508.7z"/>
			<path class="st8" d="M527.98,370.9c4.62,0.79,6.76-1.49,7.61-8.14h-4.09c-0.14-0.9-0.35-1.49-0.29-2.02
				c0.09-0.97,0.18-2.05,0.56-2.84c5.1-10.66,3.91-22.05,2.77-33.77c-0.86-8.84-3.92-18.1,0.61-27.02
				c-4.48,3.19-6.24,8.9-6.46,14.81c-0.27,7.55-0.4,14.75-4.77,20.4c-2.71,3.48-5.23,7.27-8.14,10.38
				c-0.78,0.82-2.75-0.29-4.14-0.67c-0.64-0.17-1.38-1.21-1.83-0.98c-4.7,2.51-9.79,4.3-13.87,8.08c-4.4,4.07-4.34,16.47-0.4,19.4
				c9.46,7.06,19.06,13.75,28.71,20.3c1.16,0.78,2.96-0.19,5.37-0.44c-3.86-2.77-6.38-4.58-9.28-6.66c2.02-2.29,3.7-4.2,5.71-6.47
				c-3.24-0.27-5.81-0.5-9.15-0.79C520.47,367.46,524.6,370.32,527.98,370.9z M510.53,369.93c-0.25-1.55-0.5-3.13-0.92-5.73
				c-2.87,1.38-5.63,2.72-7.65,3.69c-2.11-1.89-4.5-2.96-5.38-5.15c-0.8-2.01-0.52-5.55,0.27-7.78c0.74-2.1,2.61-3.86,4.3-4.84
				c1.16-0.69,2.84,0.32,4.29,0.35c3.84,0.08,7.69,0.02,11.81,0.02c-0.14,1.25-0.32,2.88-0.6,5.26c2.1-0.18,3.77-0.32,5.48-0.47
				C521.27,363.69,517.63,368.28,510.53,369.93z"/>
			<path class="st8" d="M516.66,355.74c2.1-0.18,3.76-0.32,5.48-0.47c-0.88,8.42-4.52,13.01-11.61,14.66
				c-0.25-1.55-0.5-3.13-0.92-5.73c-2.87,1.38-5.63,2.72-7.65,3.69c-2.1-1.89-4.5-2.97-5.38-5.15c-0.8-2.01-0.52-5.55,0.27-7.78
				c0.75-2.1,2.62-3.86,4.3-4.84c1.17-0.68,2.84,0.32,4.29,0.35c3.84,0.08,7.69,0.03,11.81,0.03
				C517.11,351.74,516.93,353.36,516.66,355.74z"/>
			<g>
				<g>
					<path class="st1" d="M509.43,548.73l-7.75,9.41l-0.39-0.34l10.86-28.16l-0.78,0.09c-1.43,0.17-2.77,0.38-4.07,0.59
						c-2.28,0.36-4.44,0.7-6.52,0.7c-0.36,0-0.71-0.01-1.07-0.03c-5.31-0.32-9.66-3.91-12.91-10.67l-0.09-0.17
						c-0.29-0.61-0.59-1.23-0.93-1.81c-4.37-7.46-4.51-7.69,0.51-15.23c0.38,0.98,0.76,1.93,1.13,2.89
						c1.04,2.67,2.02,5.19,3.07,7.71c2.47,5.9,5.99,9.16,9.91,9.16c3.51,0,6.91-2.72,9.56-7.64c1.74-3.24,3.44-6.43,4.98-9.72
						c0.43-0.9,0.1-2.3-0.95-4.18l-0.4-0.71l-0.42,0.69c-0.75,1.24-1.52,2.46-2.27,3.68c-1.68,2.68-3.41,5.45-4.96,8.33
						c-2.14,3.96-3.62,5.64-4.94,5.64c-1.27,0-2.77-1.57-4.9-5.09c-2.62-4.38-5.18-8.77-7.34-12.49c-1.82-3.14-0.52-7.4,3.56-11.74
						l8.02,21.7l0.49-0.97c1.01-2,2.04-3.99,3.06-5.98c2.72-5.27,5.53-10.72,8.03-16.29c0.63-1.4,0.46-3.39,0.31-5.32
						c-0.07-0.84-0.14-1.72-0.14-2.52v-0.36l-2.59-0.76l-8.8,20.17c-0.47-1.25-0.95-2.46-1.41-3.66c-1.65-4.26-3.2-8.3-4.57-12.4
						c-0.24-0.72,0.06-2.23,0.8-4.03l1.05-2.54c6.49-15.71,13.2-31.96,20.02-47.78c0.63-1.48,2.16-2.41,3.63-3.31
						c0.31-0.2,0.62-0.39,0.93-0.58c1.44-0.94,2.94-1.8,4.38-2.63c2.34-1.34,4.76-2.75,7-4.48c1.96-1.52,3.68-3.65,5.34-5.7
						c0.6-0.74,1.19-1.48,1.81-2.2c3.75-4.38,4.35-10.82,1.52-16.07c0.63-1.57,1.25-3.13,1.88-4.67c1.48-3.68,3.01-7.49,4.46-11.25
						c0.87-2.26,1.72-3.28,2.75-3.28c0.65,0,1.46,0.39,2.44,1.17c3.3,2.62,6.89,4.68,10.37,6.66l1.18,0.68
						c3.18,1.82,6.29,2.75,9.24,2.75c3.15,0,6.2-1.05,9.07-3.13c0.81-0.59,1.5-0.88,2.03-0.88c0.59,0,1.48,0.32,2.34,3.11
						c6.77,21.73,13.69,43.81,20.4,65.15l2.12,6.76c1.56,4.96,3.14,9.91,4.73,14.87l1.15,3.6c1.85,5.77,1.15,7.9-3.09,9.5
						c-2.08,0.79-4.27,1.19-6.52,1.19c-3.75,0-7.72-1.07-12.49-3.36c-3.85-1.86-7.77-3.81-11.54-5.7
						c-8.23-4.12-16.74-8.38-25.28-11.88c-5.62-2.3-11.16-3.48-16.48-3.48c-6.8,0-13.38,1.9-19.57,5.66
						c-5.51,3.34-5.92,4.92-2.94,11.25l0.23,0.49l0.45-0.29c1.7-1.1,3.37-2.25,4.99-3.36c3.59-2.47,6.97-4.8,10.56-6.51
						c3.02-1.43,6.12-2.13,9.48-2.13c7.05,0,13.92,3.09,20.57,6.08c8.3,3.73,16.6,8.08,24.62,12.27c4.03,2.11,8.2,4.29,12.32,6.37
						c4.72,2.38,9.32,3.59,13.67,3.59c2.94,0,5.85-0.55,8.66-1.62c5.23-2.01,6.05-4.25,4.02-10.89c-2.3-7.5-4.61-14.99-6.92-22.49
						c-6.2-20.15-12.62-41-18.86-61.54c-0.26-0.85-0.06-2.05,0.13-3.2c0.05-0.29,0.1-0.6,0.14-0.9c0.18,0.12,0.37,0.25,0.55,0.36
						c0.84,0.55,1.65,1.07,1.94,1.87c3.91,10.48,7.65,21.1,11.45,31.96c3.54,10.11,7.06,20.23,10.59,30.34
						c4.68,13.42,9.36,26.84,14.06,40.25c1.92,5.46,1.62,6.5-2.49,8.48c-3.85,1.86-7.72,2.76-11.83,2.76
						c-6.46,0-13.18-2.18-21.8-7.06c-1.19-0.67-2.39-1.35-3.58-2.04c-13.18-7.52-26.81-15.3-41.49-17.71c-3.29-0.54-6.2-0.8-8.9-0.8
						c-5.44,0-10.24,1.07-14.67,3.28l-1.38,0.68l1.52,0.21c0.14,0.02,0.28,0.05,0.44,0.09c0.27,0.06,0.56,0.12,0.86,0.12
						c0.1,0,0.21-0.01,0.32-0.03c2.67-0.45,5.42-0.68,8.14-0.68c15.5,0,29.93,7.26,45.84,16.03c5.43,2.99,11.17,5.19,16.73,7.32
						c2.44,0.94,4.97,1.9,7.44,2.93c0.39,0.16,0.78,0.26,1.15,0.35c0.34,0.09,0.67,0.16,0.98,0.28c0.02,0.03,0.42,0.65,0.51,0.79
						c-0.33,0.06-0.65,0.11-0.96,0.16c-0.97,0.17-1.81,0.31-2.62,0.31l-6.68-0.08c-27.06-0.3-55.03-0.62-82.54-1.1h-0.12
						c-2.76,0-3.16,1.81-3.67,4.1l-0.14,0.64c-2.48,10.7-5.21,21.51-7.84,31.95l-1.68,6.66c-0.18,0.7-0.59,1.34-0.99,1.96
						l-0.18,0.27c0.01-0.02-0.01-0.03-0.05-0.03c-0.05,0-0.12,0.01-0.19,0.02c-0.04,0.01-0.09,0.01-0.13,0.02L509.43,548.73z"/>
					<path d="M550.26,375.2c0.54,0,1.26,0.36,2.15,1.07c3.32,2.65,6.94,4.71,10.44,6.7l1.18,0.67c3.26,1.87,6.44,2.81,9.48,2.81
						c3.25,0,6.4-1.08,9.35-3.22c0.91-0.65,1.45-0.8,1.75-0.8c0.26,0,1.02,0,1.89,2.77c6.75,21.7,13.67,43.73,20.36,65.03l2.16,6.88
						c1.59,5.09,3.24,10.24,4.84,15.23l1.03,3.24c1.9,5.95,0.92,7.5-2.8,8.91c-2.06,0.78-4.14,1.16-6.34,1.16
						c-3.68,0-7.59-1.05-12.28-3.31c-3.85-1.86-7.76-3.81-11.53-5.7c-8.24-4.12-16.75-8.39-25.3-11.89
						c-5.67-2.33-11.27-3.5-16.66-3.5c-6.88,0-13.55,1.93-19.82,5.73c-5.76,3.49-6.23,5.27-3.13,11.86l0.46,0.98l0.91-0.59
						c1.7-1.1,3.38-2.25,5-3.37c3.57-2.46,6.94-4.78,10.49-6.47c2.95-1.4,5.98-2.08,9.28-2.08c6.95,0,13.78,3.07,20.38,6.04
						c8.29,3.72,16.58,8.07,24.6,12.26c4.03,2.11,8.2,4.29,12.32,6.37c4.78,2.41,9.46,3.64,13.89,3.64c2.99,0,5.97-0.56,8.83-1.66
						c6.02-2.31,6.2-5.27,4.29-11.48c-2.34-7.61-4.68-15.22-7.03-22.83c-6.17-20.05-12.56-40.77-18.76-61.19
						c-0.23-0.75-0.04-1.88,0.15-2.99c0.01-0.06,0.02-0.11,0.03-0.18c0.76,0.49,1.46,0.97,1.7,1.6c3.9,10.45,7.64,21.08,11.45,31.95
						c3.54,10.11,7.07,20.25,10.6,30.37c4.59,13.19,9.35,26.83,14.05,40.22c1.92,5.46,1.51,6.08-2.25,7.89
						c-3.79,1.83-7.59,2.71-11.63,2.71c-6.37,0-13.02-2.16-21.56-7c-1.19-0.67-2.39-1.35-3.58-2.04
						c-13.22-7.55-26.89-15.34-41.65-17.77c-3.31-0.55-6.25-0.8-8.98-0.8c-5.51,0-10.38,1.09-14.88,3.33l-2.76,1.37l3.05,0.42
						c0.13,0.02,0.27,0.05,0.4,0.08c0.28,0.07,0.61,0.13,0.96,0.13c0.14,0,0.27-0.01,0.4-0.03c2.64-0.45,5.36-0.68,8.06-0.68
						c15.39,0,29.76,7.24,45.62,15.98c5.45,3,11.22,5.22,16.8,7.35c2.44,0.94,4.96,1.9,7.42,2.92c0.42,0.17,0.82,0.27,1.22,0.37
						c0.27,0.07,0.54,0.13,0.78,0.22c0.01,0.02,0.02,0.03,0.03,0.05c-0.09,0.02-0.17,0.03-0.26,0.05c-0.95,0.16-1.77,0.3-2.55,0.3
						h-0.07l-6.91-0.08c-26.95-0.3-54.81-0.61-82.22-1.09h-0.12c-3.13,0-3.63,2.17-4.14,4.47c-0.05,0.21-0.09,0.42-0.14,0.64
						c-2.47,10.69-5.2,21.48-7.83,31.9c-0.56,2.23-1.13,4.46-1.69,6.69c-0.12,0.48-0.38,0.95-0.67,1.42l-0.27-4.07l-0.28-4.27
						l-0.16-2.38l-1.52,1.84l-2.85,3.46l-3.26,3.96l10.11-26.23l0.57-1.47l-1.56,0.18c-1.44,0.17-2.79,0.38-4.1,0.59
						c-2.26,0.36-4.39,0.69-6.44,0.69c-0.36,0-0.71-0.01-1.04-0.03c-5.13-0.31-9.34-3.81-12.51-10.4l-0.09-0.17
						c-0.29-0.62-0.6-1.25-0.96-1.86c-2.23-3.81-3.34-5.71-3.23-7.48c0.09-1.57,1.16-3.33,3.23-6.48c0.27,0.68,0.53,1.36,0.8,2.04
						c1.04,2.67,2.02,5.2,3.08,7.72c2.56,6.09,6.22,9.44,10.34,9.44c3.7,0,7.24-2.8,9.97-7.89c1.75-3.26,3.45-6.46,4.99-9.74
						c0.49-1.06,0.18-2.57-0.97-4.6l-0.8-1.41l-0.84,1.38c-0.75,1.24-1.52,2.46-2.28,3.68c-1.68,2.68-3.41,5.46-4.97,8.35
						c-1.25,2.32-3.09,5.4-4.53,5.4c-1.4,0-3.23-2.77-4.49-4.87c-2.62-4.38-5.18-8.77-7.33-12.49c-1.6-2.77-0.49-6.68,2.97-10.61
						l7.38,19.95l0.75,2.04l0.98-1.93c1.01-2.01,2.04-4,3.07-5.98c2.72-5.27,5.53-10.73,8.04-16.3c0.68-1.52,0.51-3.57,0.35-5.55
						c-0.07-0.83-0.14-1.7-0.14-2.48v-0.71l-0.68-0.2l-1.16-0.34l-0.7-0.21l-0.8-0.24l-0.33,0.77l-4.03,9.25l-4.11,9.49
						c-0.34-0.88-0.67-1.74-1-2.59c-1.65-4.25-3.19-8.28-4.56-12.36c-0.2-0.6,0.11-2.05,0.8-3.71l1.1-2.65
						c6.48-15.67,13.17-31.89,19.97-47.65c0.58-1.34,2.04-2.23,3.45-3.1c0.32-0.2,0.63-0.39,0.94-0.59
						c1.42-0.93,2.92-1.79,4.37-2.62c2.36-1.35,4.79-2.77,7.06-4.52c2.01-1.55,3.74-3.7,5.42-5.78c0.59-0.73,1.19-1.48,1.8-2.19
						c3.84-4.48,4.49-11.02,1.68-16.41c0.6-1.5,1.19-2.98,1.79-4.46c1.48-3.68,3.01-7.5,4.46-11.26
						C548.99,375.51,549.77,375.2,550.26,375.2 M550.26,374.25c-1.34,0-2.29,1.25-3.18,3.58c-2.06,5.37-4.23,10.67-6.41,16.12
						c2.83,5.06,2.38,11.38-1.35,15.74c-2.31,2.7-4.47,5.81-7.08,7.83c-3.6,2.79-7.59,4.65-11.35,7.09
						c-1.7,1.11-3.89,2.15-4.73,4.11c-7.18,16.65-14.12,33.5-21.07,50.32c-0.54,1.3-1.18,3.29-0.81,4.37
						c1.88,5.59,4.06,10.99,6.41,17.16c3.32-7.61,6.2-14.23,9.09-20.85c0.62,0.18,1.24,0.36,1.86,0.54c0,2.59,0.72,5.76-0.12,7.64
						c-3.42,7.6-7.32,14.81-11.08,22.24c-2.4-6.47-5.13-13.88-7.91-21.39c-4.69,4.73-6.12,9.44-4.15,12.85
						c2.42,4.2,4.86,8.37,7.34,12.5c2.13,3.55,3.74,5.33,5.3,5.33c1.65,0,3.24-1.97,5.36-5.89c2.24-4.16,4.81-8,7.23-11.99
						c0.98,1.75,1.28,3.01,0.94,3.74c-1.55,3.31-3.26,6.52-4.97,9.7c-2.65,4.94-5.93,7.4-9.14,7.4c-3.54,0-7-2.97-9.47-8.86
						c-1.54-3.67-2.95-7.45-4.53-11.43c-5.69,8.52-5.68,8.52-1.03,16.48c0.36,0.62,0.68,1.29,0.99,1.95
						c3.13,6.52,7.54,10.59,13.31,10.94c0.37,0.02,0.73,0.03,1.1,0.03c3.3,0,6.68-0.82,10.64-1.29c-3.66,9.5-7.18,18.62-10.7,27.74
						c0.33,0.29,0.67,0.59,1,0.88c2.24-2.73,4.49-5.45,7.3-8.86c0.28,4.19,0.47,6.98,0.66,9.79c0.67-0.17,1.07-0.1,1.21-0.32
						c0.46-0.73,1.01-1.5,1.23-2.38c3.23-12.84,6.52-25.66,9.53-38.61c0.63-2.71,0.77-4.38,3.36-4.38c0.04,0,0.08,0,0.11,0
						c29.71,0.52,59.42,0.83,89.14,1.16c0.03,0,0.06,0,0.09,0c1.31,0,2.62-0.35,4.4-0.6c-0.75-1.05-0.91-1.49-1.15-1.58
						c-0.69-0.27-1.43-0.35-2.12-0.63c-8.06-3.34-16.35-5.93-24.13-10.22c-14.95-8.25-29.89-16.1-46.07-16.1
						c-2.7,0-5.45,0.22-8.22,0.69c-0.08,0.01-0.16,0.02-0.24,0.02c-0.41,0-0.82-0.14-1.23-0.2c4.76-2.38,9.6-3.23,14.46-3.23
						c2.94,0,5.88,0.31,8.83,0.8c15.89,2.61,30.33,11.43,44.91,19.7c7.2,4.08,14.51,7.13,22.03,7.13c3.95,0,7.95-0.84,12.04-2.8
						c4.41-2.13,4.72-3.42,2.74-9.06c-8.26-23.5-16.42-47.07-24.65-70.59c-3.75-10.7-7.51-21.4-11.46-31.97
						c-0.51-1.38-2.18-1.98-3.3-2.94c-0.14,1.71-0.79,3.71-0.36,5.11c8.52,28.05,17.18,56.02,25.79,84.03
						c1.95,6.35,1.33,8.37-3.73,10.31c-2.84,1.09-5.67,1.59-8.49,1.59c-4.55,0-9.04-1.31-13.46-3.54
						c-12.32-6.22-24.5-13.05-36.97-18.66c-6.76-3.04-13.68-6.12-20.77-6.12c-3.2,0-6.43,0.63-9.69,2.18
						c-5.29,2.51-10.22,6.43-15.61,9.9c-2.89-6.13-2.57-7.41,2.76-10.64c6.35-3.85,12.83-5.6,19.33-5.6c5.44,0,10.89,1.22,16.3,3.44
						c12.43,5.1,24.54,11.68,36.79,17.58c4.17,2.01,8.39,3.41,12.69,3.41c2.21,0,4.43-0.37,6.68-1.22
						c4.56-1.72,5.26-4.18,3.37-10.09c-1.96-6.15-3.94-12.29-5.87-18.46c-7.52-23.97-15.05-47.93-22.52-71.91
						c-0.72-2.3-1.57-3.44-2.79-3.44c-0.65,0-1.41,0.32-2.3,0.98c-2.9,2.09-5.84,3.04-8.79,3.04c-3,0-6.01-0.97-9.01-2.68
						c-3.9-2.23-7.87-4.4-11.51-7.29C551.92,374.67,551.03,374.25,550.26,374.25L550.26,374.25z"/>
				</g>
				<line class="st9" x1="604.75" y1="396.49" x2="640.39" y2="498.85"/>
			</g>
		</g>
	</g>
	<g>
		<g>
			<path d="M721.76,612.98c-160.15,134.61-319.62,129.1-479.23-0.13c-14.18,22.51-27.82,44.19-42.96,68.22
				c86.18,63.26,176.14,108.41,279.13,109.6c105.82,1.2,198.22-44.17,286.35-109.24C749.8,657.32,735.87,635.28,721.76,612.98z
				 M518.57,777.89c-111.99,11.03-212.33-29.72-307.33-99.1c1.03-1.68,2.05-3.33,3.05-4.97c0.45-0.72,0.88-1.42,1.31-2.12
				c0.81-1.33,1.62-2.63,2.41-3.93c1.38-2.24,2.75-4.46,4.09-6.65c0.54-0.88,1.08-1.76,1.62-2.64c1.4-2.27,2.78-4.53,4.16-6.76
				c0.92-1.5,1.83-2.99,2.74-4.47c0.57-0.91,1.12-1.82,1.67-2.73c0.56-0.9,1.11-1.8,1.66-2.71c1.73-2.82,3.45-5.63,5.16-8.45
				c0.27-0.45,0.55-0.92,0.82-1.37c0.25-0.41,0.49-0.79,0.74-1.13c0.26-0.35,0.5-0.66,0.75-0.96c0.12-0.14,0.25-0.28,0.37-0.41
				c0.85-0.9,1.7-1.47,2.56-1.75c0.12-0.05,0.25-0.09,0.37-0.11c0.14-0.03,0.27-0.06,0.42-0.09c0.1-0.01,0.21-0.03,0.32-0.03
				c2.57-0.21,5.2,1.77,8.11,4.03c1.31,1.01,2.61,2.03,3.93,3.02c2.91,2.23,5.82,4.41,8.75,6.56c1.04,0.76,2.08,1.52,3.13,2.27
				c1.49,1.08,2.97,2.15,4.47,3.2c0.83,0.59,1.66,1.17,2.5,1.75c0.82,0.59,1.66,1.16,2.48,1.72c1.01,0.71,2.03,1.4,3.04,2.09
				c3.66,2.49,7.33,4.92,11.03,7.3c0.81,0.52,1.63,1.04,2.44,1.55c0.97,0.63,1.93,1.23,2.91,1.84c1.01,0.63,2.04,1.27,3.06,1.88
				c4.33,2.66,8.68,5.25,13.07,7.74c1.39,0.8,2.8,1.59,4.2,2.37c2.5,1.38,5.01,2.75,7.53,4.08c2.53,1.34,5.06,2.64,7.6,3.92
				c1.28,0.64,2.55,1.28,3.83,1.9c1.29,0.63,2.57,1.24,3.84,1.86c1.29,0.62,2.58,1.22,3.86,1.82c1.3,0.6,2.59,1.19,3.88,1.78
				c2.59,1.16,5.2,2.31,7.82,3.42c1.31,0.56,2.61,1.11,3.93,1.65c3.95,1.63,7.92,3.19,11.92,4.68c1.2,0.45,2.41,0.89,3.62,1.33
				c2.05,0.74,4.09,1.46,6.14,2.16c0.07,0.03,0.12,0.05,0.19,0.07c0.62,0.22,1.24,0.43,1.86,0.63c1.04,0.35,2.07,0.69,3.12,1.03
				c1.05,0.34,2.1,0.68,3.15,1.01c1.2,0.38,2.41,0.76,3.62,1.13c1.05,0.32,2.1,0.63,3.15,0.95c0.15,0.05,0.3,0.09,0.45,0.13
				c1.2,0.36,2.41,0.7,3.61,1.04c1.41,0.41,2.83,0.8,4.25,1.17c0.98,0.27,1.97,0.53,2.96,0.79c1.2,0.31,2.4,0.63,3.6,0.92
				c0.88,0.22,1.75,0.44,2.62,0.63c0.8,0.2,1.6,0.39,2.41,0.58c0.2,0.05,0.4,0.09,0.6,0.13c0.75,0.17,1.49,0.34,2.23,0.51
				c1.74,0.39,3.48,0.77,5.24,1.13c0.87,0.18,1.74,0.36,2.61,0.53c1.99,0.4,3.98,0.78,5.98,1.13c1.17,0.22,2.34,0.42,3.51,0.62
				c1.05,0.18,2.09,0.35,3.14,0.51c0.77,0.12,1.53,0.24,2.3,0.35c3.16,0.48,6.32,0.9,9.48,1.28c0.66,0.09,1.33,0.16,1.99,0.23
				c0.94,0.1,1.88,0.21,2.81,0.3c0.76,0.08,1.51,0.15,2.26,0.23c2.09,0.2,4.19,0.38,6.27,0.53c0.78,0.06,1.55,0.11,2.33,0.16
				c0.74,0.06,1.47,0.1,2.2,0.14c1,0.07,2,0.11,3,0.16c0.07,0.01,0.13,0.01,0.2,0.01c1.1,0.06,2.2,0.1,3.3,0.14
				c0.14,0.01,0.27,0.01,0.41,0.02c0.74,0.03,1.48,0.05,2.21,0.07c0.58,0.02,1.15,0.04,1.71,0.05c0.36,0.01,0.71,0.02,1.07,0.02
				c0.79,0.02,1.58,0.03,2.37,0.04c13.87,0.15,27.7-0.69,41.49-2.55c1.2-0.16,2.4-0.33,3.6-0.51c1.02-0.15,2.05-0.3,3.07-0.47
				c0.37-0.05,0.74-0.11,1.12-0.17c1.04-0.17,2.08-0.35,3.12-0.53c1.22-0.21,2.43-0.44,3.66-0.66c1.21-0.23,2.42-0.46,3.65-0.7
				c2.18-0.45,4.36-0.91,6.53-1.39c3.14-0.71,6.29-1.47,9.42-2.29c1.07-0.27,2.13-0.56,3.2-0.85c0.31-0.08,0.63-0.16,0.95-0.26
				c0.79-0.21,1.57-0.43,2.36-0.66c0.73-0.2,1.46-0.41,2.19-0.63c0.43-0.12,0.85-0.25,1.27-0.38c0.95-0.27,1.89-0.56,2.84-0.85
				c0.67-0.21,1.35-0.42,2.03-0.63c0.3-0.09,0.61-0.19,0.91-0.29c0.76-0.24,1.52-0.48,2.27-0.73c0.98-0.32,1.96-0.64,2.94-0.98
				c0.98-0.33,1.96-0.67,2.94-1.01c0.98-0.34,1.96-0.69,2.94-1.04c1.55-0.56,3.11-1.14,4.66-1.73c0.8-0.29,1.59-0.6,2.39-0.92
				c0.59-0.23,1.16-0.45,1.75-0.68c1.03-0.41,2.06-0.82,3.1-1.24c0.59-0.25,1.16-0.48,1.75-0.73c1.04-0.43,2.08-0.87,3.13-1.32
				c1.25-0.53,2.49-1.07,3.73-1.62c0.5-0.22,0.99-0.45,1.49-0.66c1.1-0.49,2.19-0.98,3.29-1.5c1.25-0.58,2.5-1.16,3.75-1.76
				c1.16-0.55,2.32-1.11,3.48-1.69c0.65-0.31,1.31-0.63,1.96-0.97c1.17-0.59,2.35-1.17,3.52-1.78c1.88-0.97,3.77-1.96,5.63-2.97
				c1.88-1.01,3.73-2.05,5.59-3.11c1.86-1.06,3.71-2.14,5.55-3.23c0.92-0.55,1.84-1.1,2.75-1.65c0.92-0.56,1.84-1.12,2.75-1.68
				c5.03-3.1,10.01-6.31,14.96-9.59c1.35-0.89,2.7-1.79,4.05-2.7c8.09-5.43,16.11-11,24.15-16.54c3.58-2.45,7.15-4.91,10.74-7.33
				c0,0,0.01,0,0.01-0.01c3.59-2.42,7.19-4.82,10.8-7.17c0-0.01,0.01-0.01,0.01-0.01c2.29-1.5,4.6-2.95,7.54-4.83
				c0.19-0.12,0.4-0.26,0.6-0.38c1.19,1.88,2.39,3.75,3.56,5.63c2.37,3.74,4.73,7.46,7.09,11.2c1.86,2.94,3.71,5.87,5.59,8.83
				c1.7,2.7,3.42,5.41,5.15,8.14c2.43,3.84,4.89,7.72,7.4,11.68c1.43,2.26,2.88,4.56,4.35,6.88
				C681.02,733.28,603.8,769.49,518.57,777.89z"/>
			<path class="st1" d="M269.76,623.16c-6.89-5.21-13.96-10.06-20.55-15.63c-5.26-4.45-8.39-3.49-12.14,2.62
				c-8.16,13.31-17.02,26.05-26.69,40.7c-26.82-20.07-53.49-40-82.27-61.54c9.51-3.31,17.04-5.94,25.37-8.84
				c-4.14-9.41-7.87-17.86-12.33-28h28.52c-0.77-8.55-1.41-15.57-2.33-25.85c13.81,10.03,25.91,18.64,37.86,27.52
				c20.99,15.61,41.67,31.73,62.88,46.89C277.34,607.67,277.83,613.88,269.76,623.16z"/>
			<path class="st1" d="M836.45,589.45c-27.73,20.95-54.18,40.93-82.05,61.98c-10.59-15.98-21.06-31.75-32.09-48.4
				c-10.1,7.61-18.4,13.86-27.09,20.42c-6.23-7.12-10.74-12.93-0.57-20.44c32.17-23.78,64.11-47.98,96.2-71.92
				c1.56-1.17,3.66-1.38,6.91-2.56c-1.28,8.41-2.33,15.3-3.55,23.31h29.37c-4.32,10.28-7.97,19-12.27,29.2
				C819.39,583.75,826.79,586.22,836.45,589.45z"/>
			<path class="st0" d="M211.24,678.79c10.45-17.04,19.62-31.88,28.68-46.8c4.48-7.37,8.64-4.31,13.62-0.44
				c37.14,28.86,76.55,52.5,119.24,68.41c85.45,31.85,170.09,29.88,252.42-12.35c30.2-15.49,58.05-37.14,86.97-55.98
				c2.44-1.59,4.91-3.15,8.13-5.22c10.88,17.2,21.38,33.79,33.14,52.36c-72.44,54.51-149.66,90.71-234.9,99.11
				C406.59,788.92,306.24,748.17,211.24,678.79z"/>
		</g>
		<path id="SVGID_x5F_1_x5F_" class="st10" d="M208.25,662.41c24.99,19.04,60.96,43.55,106.7,65.28
			c47.33,22.48,95.59,45.41,160.05,46.95c79.94,1.91,141.04-30.1,181.95-51.54c36.38-19.06,64.72-39.66,83.84-54.97"/>
		<text transform="matrix(0.8157 0.5785 -0.5785 0.8157 224.3516 674.2899)" class="st11 st12"> </text>
		<text transform="matrix(0.8325 0.554 -0.554 0.8325 226.7996 676.3044)" class="st13 st14">L</text>
		<text transform="matrix(0.8645 0.5026 -0.5026 0.8645 254.7096 694.9947)" class="st13 st14">U</text>
		<text transform="matrix(0.8988 0.4384 -0.4384 0.8988 288.9887 715.0637)" class="st13 st14">M</text>
		<text transform="matrix(0.9135 0.4067 -0.4067 0.9135 330.1671 735.0966)" class="st13 st14">E</text>
		<text transform="matrix(0.9422 0.335 -0.335 0.9422 363.5997 750.2098)" class="st13 st14">N</text>
		<text transform="matrix(0.9663 0.2574 -0.2574 0.9663 401.1535 763.0756)" class="st13 st14"> </text>
		<text transform="matrix(0.9844 0.1761 -0.1761 0.9844 415.8373 767.3965)" class="st13 st14">T</text>
		<text transform="matrix(0.9989 0.0459 -0.0459 0.9989 448.9203 773.5118)" class="st13 st14">U</text>
		<text transform="matrix(0.9957 -0.0928 0.0928 0.9957 488.6384 775.3287)" class="st13 st14">U</text>
		<text transform="matrix(0.9722 -0.2343 0.2343 0.9722 528.2646 771.8055)" class="st13 st14">M</text>
		<text transform="matrix(0.9465 -0.3228 0.3228 0.9465 572.5959 760.3674)" class="st13 st14"> </text>
		<text transform="matrix(0.9239 -0.3827 0.3827 0.9239 587.1537 755.6886)" class="st13 st14">F</text>
		<text transform="matrix(0.8942 -0.4477 0.4477 0.8942 618.1876 742.83)" class="st13 st14">U</text>
		<text transform="matrix(0.8734 -0.4869 0.4869 0.8734 653.7148 725.1044)" class="st13 st14">L</text>
		<text transform="matrix(0.8349 -0.5504 0.5504 0.8349 683.1412 708.8834)" class="st13 st14">G</text>
		<text transform="matrix(0.7914 -0.6113 0.6113 0.7914 718.783 685.2401)" class="st13 st14">E</text>
		<text transform="matrix(1 0 0 1 0.2627 -14.248)" class="st11 st12"> </text>
	</g>
	<text transform="matrix(0.8031 0 0 1 134.7354 420.5396)" class="st13 st15">19</text>
	<text transform="matrix(1.1742 0 0 1 752.6084 420.4053)" class="st13 st15">53</text>
	<path id="SVGID_x5F_2_x5F_" class="st10" d="M665.52,826.88c-10.15,4.51-233.34,99.23-418.33-35.69
		C122.46,700.22,96.17,563.98,92.06,540.71C62.7,374.5,150.81,252.61,165.7,232.7c13.86-18.52,111.77-144.81,287.83-158.76
		c17.5-1.38,206.11-13.02,335.21,138.79c97.96,115.19,113.93,268.4,72.38,389.87C832.11,687.38,780,742.3,749.77,769.71"/>
	<text transform="matrix(-0.2203 -0.9754 0.9754 -0.2203 95.4862 557.5049)" class="st11 st12"> </text>
	<text transform="matrix(-0.1877 -0.9822 0.9822 -0.1877 97.2404 567.9681)" class="st1 st16 st17">S</text>
	<text transform="matrix(-0.0943 -0.9955 0.9955 -0.0943 90.0276 532.6702)" class="st1 st16 st17">E</text>
	<text transform="matrix(0.0307 -0.9995 0.9995 0.0307 85.5266 486.311)" class="st1 st16 st17">V</text>
	<text transform="matrix(0.1539 -0.9881 0.9881 0.1539 87.1945 436.1965)" class="st1 st16 st17">E</text>
	<text transform="matrix(0.2747 -0.9615 0.9615 0.2747 94.1699 390.1415)" class="st1 st16 st17">N</text>
	<text transform="matrix(0.3865 -0.9223 0.9223 0.3865 109.1431 338.5836)" class="st1 st16 st17">T</text>
	<text transform="matrix(0.4917 -0.8708 0.8708 0.4917 126.9459 295.5449)" class="st1 st16 st17">H</text>
	<text transform="matrix(0.5747 -0.8183 0.8183 0.5747 153.9426 249.1938)" class="st1 st16 st17">-</text>
	<text transform="matrix(0.6519 -0.7583 0.7583 0.6519 162.8218 235.0005)" class="st1 st16 st17">D</text>
	<text transform="matrix(0.746 -0.6659 0.6659 0.746 198.9436 193.6191)" class="st1 st16 st17">A</text>
	<text transform="matrix(0.8178 -0.5755 0.5755 0.8178 236.3733 160.2033)" class="st1 st16 st17">Y</text>
	<text transform="matrix(0.8637 -0.5039 0.5039 0.8637 277.6766 131.8683)" class="st1 st16 st17"> </text>
	<text transform="matrix(0.9048 -0.4259 0.4259 0.9048 295.9497 120.4694)" class="st1 st16 st17">A</text>
	<text transform="matrix(0.9517 -0.3071 0.3071 0.9517 341.3247 99.095)" class="st1 st16 st17">D</text>
	<text transform="matrix(0.9835 -0.1811 0.1811 0.9835 389.0612 83.694)" class="st1 st16 st17">V</text>
	<text transform="matrix(0.9991 -0.0414 0.0414 0.9991 438.3824 74.4279)" class="st1 st16 st17">E</text>
	<text transform="matrix(0.9963 0.0865 -0.0865 0.9963 484.9161 72.4924)" class="st1 st16 st17">N</text>
	<text transform="matrix(0.9807 0.1955 -0.1955 0.9807 538.379 77.3375)" class="st1 st16 st17">T</text>
	<text transform="matrix(0.9618 0.2738 -0.2738 0.9618 583.9061 86.8463)" class="st1 st16 st17">I</text>
	<text transform="matrix(0.9355 0.3535 -0.3535 0.9355 608.1749 93.2763)" class="st1 st16 st17">S</text>
	<text transform="matrix(0.8888 0.4583 -0.4583 0.8888 651.733 109.7112)" class="st1 st16 st17">T</text>
	<text transform="matrix(0.8453 0.5343 -0.5343 0.8453 692.8148 131.5056)" class="st1 st16 st17"> </text>
	<text transform="matrix(0.7943 0.6076 -0.6076 0.7943 711.3091 142.5312)" class="st1 st16 st17">S</text>
	<text transform="matrix(0.7075 0.7067 -0.7067 0.7075 748.3782 170.6003)" class="st1 st16 st17">H</text>
	<text transform="matrix(0.6109 0.7917 -0.7917 0.6109 786.275 208.8112)" class="st1 st16 st17">S</text>
	<text transform="matrix(0.5592 0.829 -0.829 0.5592 814.1276 246.0396)" class="st11 st12"> </text>
	<text transform="matrix(1 0 0 1 0.2627 -14.248)" class="st11 st12"> </text>
	<rect x="14.83" y="563.96" class="st10" width="8.69" height="3.18"/>
	<path class="st18" d="M816.8,807.74c0,0-0.01,0.01-0.04,0.03c-0.46,0.31-5.4,3.61-13.88,8.97"/>
	<path class="st18" d="M164.74,816.74c-3.18-2.95-6.31-5.96-9.4-9"/>
	<path class="st19" d="M807.4,816.74c-83.64,77.9-195.61,125.76-318.78,126.4c-0.85,0.02-1.7,0.02-2.56,0.02
		c-124.17,0-237.12-47.98-321.33-126.42h143.38c53.31,27.54,113.81,43.09,177.95,43.09s124.64-15.55,177.95-43.09H807.4z"/>
	<path class="st0" d="M513.6,817.21c27.52,0,28.77,28.86,1.29,29.91c-7.04,0.27-14.11,0.4-21.24,0.4s-14.2-0.13-21.24-0.4
		c-27.48-1.04-26.23-29.91,1.29-29.91H513.6z"/>
	<path id="SVGID_x5F_3_x5F_" class="st10" d="M259.86,865.88c35.71,19.94,90.15,44.39,160.16,55.07
		c39.65,6.04,122.09,13.42,218.26-18.02c58.79-19.22,102.83-46.46,131.27-67.11"/>
	<text transform="matrix(0.888 0.4599 -0.4599 0.888 271.8107 872.3411)" class="st11 st12"> </text>
	<text transform="matrix(0.9121 0.41 -0.41 0.9121 274.3374 874.3824)" class="st0 st16 st17 st20">B</text>
	<text transform="matrix(0.9861 0.1661 -0.1661 0.9861 389.8383 915.9253)" class="st0 st16 st17 st20">E</text>
	<text transform="matrix(0.9957 -0.0925 0.0925 0.9957 508.5526 926.7287)" class="st0 st16 st17 st20">K</text>
	<text transform="matrix(0.9315 -0.3637 0.3637 0.9315 633.1712 905.7238)" class="st0 st16 st17 st20">W</text>
	<text transform="matrix(1 0 0 1 0.2627 -14.248)" class="st11 st12"> </text>
</g>
<rect x="985.76" y="60.55" class="st1" width="35" height="841"/>
<text transform="matrix(0.4068 0 0 1 1043.2266 242.4502)" class="st1 st16 st21 st22">SEVENTH-DAY ADVENTIST </text>
<text transform="matrix(0.4068 0 0 1 1043.2266 450.7598)" class="st1 st16 st21 st22">SENIOR HIGH SCHOOL </text>
<text transform="matrix(0.4068 0 0 1 1043.2266 690.7256)" class="st1 st16 st21 st22">BEKWAI-ASHANTI</text>
<rect x="1144.46" y="390.7" class="st10" width="7.02" height="0"/>
</svg>
