<svg id="Layer_1" data-name="Layer 1" xmlns="http://www.w3.org/2000/svg" viewBox="0 0 1113.85 1100.85"><defs><style>.cls-1,.cls-16,.cls-3,.cls-4{fill:#fff;}.cls-13,.cls-15,.cls-2,.cls-5{fill:#013220;}.cls-3,.cls-4{stroke:#013220;}.cls-10,.cls-14,.cls-15,.cls-3,.cls-4,.cls-5,.cls-6,.cls-7,.cls-8,.cls-9{stroke-miterlimit:10;}.cls-3{stroke-width:14px;}.cls-4{stroke-width:7px;}.cls-5,.cls-8{stroke:#fff;}.cls-5,.cls-6,.cls-7{stroke-width:6px;}.cls-6,.cls-7{fill:#070707;}.cls-6{stroke:#42210b;}.cls-7{stroke:#110b07;}.cls-8{fill:#161616;}.cls-14,.cls-8{stroke-width:2px;}.cls-9{fill:#ff0;stroke:#d4145a;}.cls-10,.cls-14{fill:none;}.cls-10,.cls-14,.cls-15{stroke:#000;}.cls-11{font-size:58.05px;}.cls-11,.cls-12{font-family:Arial-BoldMT, Arial;font-weight:700;}.cls-12{font-size:72px;}.cls-13,.cls-16{font-size:68px;font-family:Arial-Black, Arial;font-weight:800;}</style></defs><path class="cls-1" d="M510.5,911.5a398.58,398.58,0,0,1-184.7-44.72l-1.51-.78H173.94c-2.47-2.33-5-4.8-7.79-7.5a491.28,491.28,0,1,1,689.13-.42l0,0-.46.45c-2.46,2.43-5,4.88-7.73,7.45H696.71l-1.51.78A398.58,398.58,0,0,1,510.5,911.5Z" transform="translate(77.47 82.6)"/><path class="cls-2" d="M510.5,24.5A483.83,483.83,0,0,1,850.86,852.6l0,0-1,.94c-1.8,1.78-3.66,3.58-5.6,5.43H695l-3,1.56a393.65,393.65,0,0,1-86.58,32.5,399.34,399.34,0,0,1-189.8,0A393.65,393.65,0,0,1,329,860.56L326,859H176.73c-1.82-1.73-3.69-3.55-5.66-5.48A483.85,483.85,0,0,1,510.5,24.5m0-14c-275,0-498,223-498,498a496.45,496.45,0,0,0,148.75,355q4.91,4.82,9.93,9.5H322.59a410.77,410.77,0,0,0,375.82,0H849.82q5-4.66,9.89-9.47l0,0a496.45,496.45,0,0,0,148.75-355c0-275-223-498-498-498Z" transform="translate(77.47 82.6)"/><path class="cls-1" d="M510.5,912.5a399.52,399.52,0,0,1-185.16-44.83A403.95,403.95,0,0,1,106.5,508.5,404.1,404.1,0,0,1,882.75,351.25a404.77,404.77,0,0,1-28.92,370.3A405.65,405.65,0,0,1,695.66,867.67,399.52,399.52,0,0,1,510.5,912.5Z" transform="translate(77.47 82.6)"/><path class="cls-2" d="M510.5,110.5A398.08,398.08,0,0,1,848.73,718.38,398,398,0,0,1,112.5,508.5a397.65,397.65,0,0,1,398-398m0-12c-226.44,0-410,183.56-410,410,0,158.71,90.18,296.36,222.09,364.5a410.77,410.77,0,0,0,375.82,0C830.32,804.86,920.5,667.21,920.5,508.5c0-226.44-183.56-410-410-410Z" transform="translate(77.47 82.6)"/><path class="cls-3" d="M778.09,527.22a178,178,0,0,1-29.3,74c-27.78,40.69-66.7,70.06-109.12,95.94-31.38,19.15-65.69,32.56-99.61,46.93-16,6.8-29.73,7.7-45.81-.23-27.86-13.73-57.8-23.79-85.07-38.39-44.64-23.91-85.14-53.26-115.82-92.93-24.08-31.16-38.15-65.77-38.62-100.18.36-27.8,5.57-50.21,13.14-72.12,11.57-33.57,24.35-66.76,35.18-100.54,11.17-34.85,13.33-70.84,10.82-107.08-.57-8.08-1.82-16.1-2.37-24.18-.56-8.33,2.47-11.1,11-9.41,27.58,5.48,55.53,6.11,83.45,5.36,28.16-.8,56.1-4.1,83.3-11.65q12-3.36,24.2-6.08a16.17,16.17,0,0,1,7.7.22c45.28,13.59,91.63,19.76,139.08,17.27,16.88-.88,33.69-3.12,50.51-4.85,11.46-1.19,13.89,1.25,12.15,11.87-7.21,43.58-5,86.79,8.54,129,10.81,33.79,23.8,66.95,34.89,100.67C775.52,468.89,782.68,497.42,778.09,527.22Z" transform="translate(77.47 82.6)"/><path class="cls-4" d="M728.34,515.28a141.13,141.13,0,0,1-23.71,59.1c-22.49,32.5-54,56-88.32,76.62-25.4,15.3-53.17,26-80.62,37.49-13,5.43-24.07,6.15-37.08-.19-22.54-11-46.78-19-68.85-30.66-36.13-19.09-68.91-42.54-93.74-74.22-19.49-24.88-30.88-52.53-31.26-80,.29-22.2,4.51-40.1,10.63-57.6,9.37-26.81,19.71-53.32,28.48-80.3,9-27.83,10.79-56.58,8.76-85.52-.47-6.45-1.48-12.86-1.93-19.31-.45-6.66,2-8.87,8.89-7.52,22.31,4.38,44.94,4.88,67.53,4.28,22.8-.64,45.41-3.27,67.43-9.31q9.72-2.67,19.59-4.85a13.25,13.25,0,0,1,6.23.17,333,333,0,0,0,112.57,13.8c13.66-.71,27.26-2.49,40.87-3.87,9.28-.95,11.25,1,9.84,9.47-5.84,34.81-4,69.33,6.91,103,8.75,27,19.26,53.47,28.24,80.4C726.26,468.69,732.06,491.47,728.34,515.28Z" transform="translate(77.47 82.6)"/><path class="cls-5" d="M508.2,411.36c-1.47,8.75-.08,17.68,2.78,26.58.75,2.35-.09,6.12-.93,8.82-5.11,16.31-10.47,32.47-15.65,48.73-1.09,3.41-2.35,4.05-5,2.69-12-6.13-23.91-4.24-35.67,1.87q-22.43,11.65-44.95,23a8.7,8.7,0,0,1-5,.64c-9.74-1.42-12.2-4.31-7.88-17.34,9.63-29.07,18.55-58.57,27.61-88,1.52-4.95,2.67-7.65,7.25-4.5,6.1,4.2,12.56,3.27,18.81-.6q13.68-8.47,27.47-16.65c6.51-3.83,13.27-5.2,20.37-3.26C505,395.45,508.18,400.23,508.2,411.36Z" transform="translate(77.47 82.6)"/><path class="cls-6" d="M558.21,430.78c-7.17,9.55-12.09,21.14-23,21-3,0-3.93,1.66-5.23,5-6.34,16.44-13,32.63-19.69,48.85-6.58,16-13.27,31.91-19.89,47.88-3.79,9.14-4.48,9.33-11.5,2.36,3.21-10,6.41-20.07,9.71-30.11,8.5-25.87,16.92-51.8,25.68-77.52,1.9-5.56,2.3-9.62.18-15.62-2-5.57-1.34-12.83-1.73-19.36a47.33,47.33,0,0,1,.12-7.34c.19-2.14.29-5.17,1.29-6.06s3.24-.05,4.58.94c10.14,7.5,20.19,15.22,30.27,22.88C551.7,425.78,554.36,427.83,558.21,430.78Z" transform="translate(77.47 82.6)"/><path class="cls-7" d="M384.29,550c-4.68-1.37-9.38-2.43-13.94-4.2-3.08-1.19-3.79-4.15-2.31-8.35,12.72-36.27,25.31-72.61,38.11-108.82.6-1.71,2.71-2.45,4.12-3.64.1,2,.73,4.34.22,6Q397,474.79,383.32,518.42c-2.47,7.91-1.91,9.07,4.26,11.86,9.58,4.31,18.3-.11,27-4.41,10.87-5.37,21.59-11.26,32.45-16.67,12.7-6.34,25.66-8.79,39.09-4.41,3.46,1.13,4.34,2.65,2.88,7.25-3.51,11.05-3.36,11-12.1,9.42-13.89-2.45-27.5.17-40.67,5.89-13.34,5.8-26.36,12.91-39.62,19.08C392.73,548.24,388.53,548.83,384.29,550Z" transform="translate(77.47 82.6)"/><path class="cls-8" d="M393.78,547.72c15.68-.73,28.74-12,42.94-18.67,15.72-7.36,31.61-10.79,49.26-4.88-2.57,8.08-4.89,15.82-7.57,23.33-.4,1.13-2.46,1.64-3.76,1.66q-39.12.48-78.25.73a11.59,11.59,0,0,1-2.59-.57Z" transform="translate(77.47 82.6)"/><path class="cls-9" d="M554.76,402.21c4.88.83,7.14-1.57,8-8.6h-4.32a10,10,0,0,1-.31-2.13,9.47,9.47,0,0,1,.59-3c5.39-11.26,4.13-23.28,2.93-35.66-.91-9.34-4.14-19.11.64-28.53-4.73,3.37-6.59,9.4-6.82,15.64-.29,8-.42,15.58-5,21.54-2.86,3.68-5.52,7.68-8.6,11-.82.87-2.9-.31-4.37-.71-.68-.18-1.46-1.28-1.93-1-5,2.65-10.34,4.54-14.65,8.53-4.65,4.3-4.58,17.39-.42,20.49,10,7.45,20.13,14.52,30.32,21.44,1.22.82,3.13-.2,5.67-.46l-9.8-7,6-6.83-9.66-.83C546.83,398.58,551.19,401.6,554.76,402.21Zm-18.43-1c-.26-1.64-.53-3.3-1-6.05l-8.08,3.9c-2.23-2-4.75-3.13-5.68-5.44-.85-2.12-.55-5.86.29-8.22a10.41,10.41,0,0,1,4.54-5.11c1.23-.73,3,.34,4.53.37,4.06.08,8.12,0,12.47,0-.15,1.32-.34,3-.63,5.55l5.79-.5C547.67,394.59,543.83,399.44,536.33,401.18Z" transform="translate(77.47 82.6)"/><path class="cls-9" d="M542.8,386.2l5.79-.5c-.92,8.89-4.76,13.74-12.26,15.48-.26-1.64-.53-3.3-1-6.05l-8.08,3.9c-2.23-2-4.75-3.13-5.68-5.44-.85-2.12-.55-5.86.29-8.22a10.41,10.41,0,0,1,4.54-5.11c1.23-.73,3,.34,4.53.37,4.06.08,8.12,0,12.47,0C543.28,382,543.09,383.69,542.8,386.2Z" transform="translate(77.47 82.6)"/><path class="cls-2" d="M535.17,590,527,599.93l-.41-.36,11.47-29.74-.83.09c-1.51.18-2.93.4-4.3.62a45.08,45.08,0,0,1-6.88.74c-.38,0-.76,0-1.13,0-5.61-.34-10.2-4.13-13.63-11.26l-.09-.19c-.3-.64-.62-1.3-1-1.91-4.61-7.88-4.76-8.12.54-16.08l1.19,3.05c1.09,2.82,2.13,5.49,3.24,8.14,2.61,6.24,6.33,9.67,10.46,9.67,3.71,0,7.3-2.87,10.09-8.07,1.84-3.43,3.63-6.79,5.26-10.26.45-1,.11-2.43-1-4.41l-.42-.75-.45.74c-.79,1.3-1.6,2.59-2.4,3.88-1.77,2.83-3.6,5.76-5.24,8.8-2.26,4.18-3.82,6-5.22,6s-2.93-1.66-5.17-5.39c-2.77-4.61-5.47-9.26-7.75-13.19-1.92-3.32-.55-7.81,3.76-12.4l8.47,22.92.52-1c1.07-2.12,2.15-4.21,3.23-6.31,2.87-5.56,5.84-11.32,8.48-17.2.67-1.48.5-3.58.33-5.61-.07-.9-.15-1.82-.15-2.66v-.37l-2.74-.81L526,537.82c-.51-1.32-1-2.61-1.49-3.87-1.74-4.5-3.38-8.76-4.84-13.09-.25-.76.07-2.36.86-4.26l1.1-2.69c6.86-16.59,13.94-33.75,21.14-50.45.68-1.56,2.28-2.54,3.84-3.5l1-.61c1.52-1,3.1-1.9,4.64-2.78a64.44,64.44,0,0,0,7.39-4.74,36.5,36.5,0,0,0,5.64-6c.63-.78,1.26-1.56,1.91-2.31a15.15,15.15,0,0,0,1.6-17c.66-1.65,1.32-3.3,2-4.93,1.56-3.89,3.17-7.91,4.7-11.88.93-2.39,1.82-3.46,2.9-3.46a4.55,4.55,0,0,1,2.58,1.24,84.22,84.22,0,0,0,11,7l1.25.71a19.67,19.67,0,0,0,9.76,2.9,16.17,16.17,0,0,0,9.58-3.3,4,4,0,0,1,2.14-.93c.62,0,1.56.34,2.47,3.28,7.15,23,14.46,46.27,21.54,68.81l2.24,7.14q2.46,7.86,5,15.7l1.22,3.8c1.94,6.08,1.21,8.33-3.26,10a19.39,19.39,0,0,1-6.87,1.25c-4,0-8.16-1.13-13.19-3.55-4.07-2-8.2-4-12.19-6-8.69-4.35-17.67-8.85-26.69-12.55a45.87,45.87,0,0,0-17.39-3.66,39.48,39.48,0,0,0-20.67,6c-5.82,3.53-6.26,5.2-3.11,11.88l.25.52.48-.31c1.8-1.16,3.56-2.37,5.27-3.55a82.36,82.36,0,0,1,11.15-6.87,22.9,22.9,0,0,1,10-2.25c7.45,0,14.7,3.26,21.72,6.42,8.76,3.94,17.53,8.52,26,13,4.26,2.23,8.66,4.53,13,6.73A32.23,32.23,0,0,0,646,533.42a25.37,25.37,0,0,0,9.14-1.72c5.52-2.12,6.39-4.48,4.24-11.5l-7.31-23.75c-6.55-21.28-13.33-43.29-19.92-65a8.22,8.22,0,0,1,.14-3.38c.05-.31.11-.63.15-.95l.58.38a4.68,4.68,0,0,1,2,2c4.13,11.07,8.08,22.28,12.09,33.75q5.61,16,11.19,32,7.41,21.25,14.85,42.5c2,5.77,1.7,6.86-2.63,9a28.23,28.23,0,0,1-12.5,2.91c-6.82,0-13.92-2.3-23-7.46L631.26,540c-13.92-7.94-28.31-16.16-43.81-18.7a56.84,56.84,0,0,0-9.4-.85A33.93,33.93,0,0,0,562.57,524l-1.46.73,1.61.21.46.09a3.84,3.84,0,0,0,.91.13l.33,0a51.54,51.54,0,0,1,8.6-.72c16.37,0,31.61,7.67,48.41,16.93A139.5,139.5,0,0,0,639.1,549c2.58,1,5.26,2,7.86,3.09a8,8,0,0,0,1.21.37,8.36,8.36,0,0,1,1,.3s.44.69.53.83l-1,.17a16.34,16.34,0,0,1-2.77.33l-7.05-.08c-28.57-.32-58.11-.64-87.16-1.15h-.12c-2.92,0-3.34,1.92-3.88,4.34l-.16.67c-2.61,11.31-5.49,22.71-8.28,33.74l-1.77,7a7.54,7.54,0,0,1-1,2.08l-.19.29s0,0,0,0l-.2,0-.14,0Z" transform="translate(77.47 82.6)"/><path d="M578.29,406.75a4.17,4.17,0,0,1,2.27,1.13,83.92,83.92,0,0,0,11,7.08l1.24.71a20.22,20.22,0,0,0,10,3,16.69,16.69,0,0,0,9.87-3.39,3.48,3.48,0,0,1,1.85-.84c.26,0,1.08,0,2,2.93,7.14,22.91,14.44,46.18,21.5,68.68l2.28,7.27c1.69,5.37,3.43,10.81,5.11,16.08l1.09,3.42c2,6.28,1,7.92-3,9.41a18.61,18.61,0,0,1-6.69,1.22c-3.89,0-8-1.11-13-3.5-4.07-2-8.19-4-12.18-6C603,509.54,594,505,585,501.33a46.26,46.26,0,0,0-17.58-3.7,39.89,39.89,0,0,0-20.93,6.05c-6.09,3.69-6.58,5.56-3.3,12.52l.49,1,1-.62c1.8-1.16,3.57-2.38,5.28-3.56A82.69,82.69,0,0,1,561,506.22a22.32,22.32,0,0,1,9.79-2.2c7.34,0,14.55,3.24,21.52,6.38,8.74,3.93,17.51,8.51,26,13,4.26,2.23,8.66,4.53,13,6.73A32.7,32.7,0,0,0,646,533.92a25.93,25.93,0,0,0,9.32-1.75c6.36-2.44,6.55-5.57,4.54-12.11Q656.12,508,652.42,496c-6.52-21.17-13.26-43.06-19.82-64.62a8.34,8.34,0,0,1,.16-3.16l0-.18a4.22,4.22,0,0,1,1.78,1.68c4.12,11,8.07,22.26,12.09,33.74q5.61,16,11.19,32.07c4.86,13.93,9.88,28.33,14.85,42.47,2,5.77,1.59,6.42-2.38,8.34a27.8,27.8,0,0,1-12.28,2.86c-6.73,0-13.75-2.28-22.77-7.39l-3.77-2.15c-14-8-28.39-16.21-44-18.77a58.87,58.87,0,0,0-9.48-.85,34.51,34.51,0,0,0-15.71,3.51L559.43,525l3.22.44.42.08a4.41,4.41,0,0,0,1,.14l.42,0a50.3,50.3,0,0,1,8.51-.72c16.25,0,31.43,7.64,48.17,16.87a138.38,138.38,0,0,0,17.74,7.76c2.58,1,5.24,2,7.84,3.08a7.72,7.72,0,0,0,1.28.39,8,8,0,0,1,.82.23l0,0-.27,0a16.56,16.56,0,0,1-2.69.32h-.07l-7.3-.08c-28.46-.32-57.88-.65-86.82-1.15h-.13c-3.32,0-3.83,2.3-4.37,4.72l-.15.68c-2.62,11.29-5.49,22.68-8.28,33.69l-1.78,7.06a5.39,5.39,0,0,1-.71,1.5l-.29-4.3-.3-4.51-.17-2.51-1.6,1.95-3,3.65-3.44,4.18,10.69-27.7.59-1.55-1.64.19c-1.52.18-2.95.41-4.33.62a44.22,44.22,0,0,1-6.8.74c-.38,0-.75,0-1.1,0-5.42-.32-9.86-4-13.21-11l-.09-.18c-.31-.65-.63-1.32-1-2-2.35-4-3.53-6-3.42-7.9.11-1.66,1.22-3.52,3.41-6.84.29.73.57,1.44.84,2.16,1.1,2.82,2.13,5.48,3.25,8.14,2.7,6.44,6.57,10,10.92,10,3.91,0,7.65-3,10.53-8.33,1.85-3.45,3.64-6.82,5.27-10.29.53-1.12.19-2.71-1-4.86l-.84-1.5-.88,1.47q-1.2,2-2.41,3.88c-1.77,2.84-3.6,5.77-5.25,8.82-1.32,2.45-3.26,5.7-4.78,5.7s-3.42-2.94-4.74-5.14c-2.77-4.62-5.47-9.26-7.75-13.19-1.69-2.93-.51-7.05,3.15-11.2l7.79,21.07.79,2.15,1-2q1.61-3.16,3.23-6.31c2.87-5.57,5.84-11.33,8.49-17.21.72-1.6.54-3.77.37-5.86-.07-.89-.15-1.8-.15-2.62v-.75l-.72-.21-1.22-.35-.74-.22-.85-.25-.35.81-4.26,9.77-4.36,10-1.06-2.74c-1.73-4.5-3.37-8.74-4.82-13.06-.21-.63.12-2.17.84-3.91l1.15-2.8c6.84-16.56,13.91-33.68,21.09-50.33.61-1.41,2.15-2.36,3.64-3.27l1-.62c1.5-1,3.08-1.89,4.6-2.77a63.69,63.69,0,0,0,7.46-4.77,37.86,37.86,0,0,0,5.72-6.1c.62-.77,1.26-1.56,1.9-2.31a15.63,15.63,0,0,0,1.77-17.33l1.89-4.71c1.56-3.89,3.18-7.91,4.71-11.89,1.08-2.81,1.91-3.14,2.43-3.14m0-1c-1.41,0-2.42,1.32-3.36,3.78-2.19,5.67-4.48,11.27-6.77,17a14.63,14.63,0,0,1-1.43,16.62c-2.44,2.85-4.72,6.13-7.48,8.27-3.8,2.95-8,4.91-12,7.49-1.79,1.17-4.11,2.27-5,4.34-7.58,17.58-14.91,35.36-22.25,53.13-.56,1.38-1.24,3.48-.86,4.62,2,5.9,4.29,11.6,6.77,18.12,3.5-8,6.55-15,9.6-22l2,.57c0,2.73.76,6.08-.13,8.07-3.61,8-7.74,15.64-11.71,23.48-2.52-6.83-5.41-14.65-8.35-22.59-4.94,5-6.46,10-4.38,13.57,2.56,4.43,5.13,8.84,7.75,13.2,2.25,3.76,4,5.63,5.6,5.63s3.42-2.08,5.66-6.22c2.37-4.39,5.08-8.45,7.63-12.66,1,1.84,1.35,3.18,1,3.94-1.65,3.5-3.44,6.88-5.25,10.24-2.8,5.23-6.26,7.81-9.65,7.81-3.74,0-7.39-3.15-10-9.36-1.63-3.89-3.12-7.87-4.78-12.07-6,9-6,9-1.08,17.4.38.66.71,1.36,1.05,2.06,3.31,6.89,8,11.18,14.05,11.55.38,0,.77,0,1.16,0,3.48,0,7.05-.87,11.24-1.36-3.86,10-7.58,19.66-11.3,29.29l1.06.94,7.71-9.37c.3,4.42.5,7.37.7,10.34.71-.17,1.12-.1,1.27-.34a8.8,8.8,0,0,0,1.3-2.51c3.42-13.57,6.89-27.1,10.06-40.77.66-2.87.81-4.63,3.55-4.63h.11c31.38.55,62.75.88,94.13,1.23H646a38.28,38.28,0,0,0,4.65-.63c-.79-1.11-1-1.56-1.21-1.66-.73-.3-1.51-.37-2.24-.67-8.51-3.53-17.27-6.27-25.48-10.79-15.79-8.71-31.56-17-48.65-17a51.45,51.45,0,0,0-8.68.73l-.25,0a9.77,9.77,0,0,1-1.3-.21A33.45,33.45,0,0,1,578.05,521a57.46,57.46,0,0,1,9.32.84c16.78,2.76,32,12.07,47.42,20.8,7.6,4.31,15.32,7.52,23.26,7.52a28.78,28.78,0,0,0,12.71-3c4.66-2.25,5-3.61,2.89-9.57-8.72-24.82-17.34-49.7-26-74.54-4-11.3-7.93-22.6-12.1-33.76-.55-1.45-2.3-2.09-3.49-3.1-.15,1.81-.83,3.92-.38,5.4q13.5,44.43,27.23,88.73c2.06,6.71,1.4,8.84-3.94,10.89a24.83,24.83,0,0,1-9,1.68,31.47,31.47,0,0,1-14.21-3.74c-13-6.56-25.87-13.77-39-19.7-7.14-3.21-14.45-6.46-21.93-6.46a23.36,23.36,0,0,0-10.22,2.3c-5.59,2.65-10.8,6.79-16.48,10.45-3.06-6.47-2.72-7.83,2.91-11.24a38.72,38.72,0,0,1,20.41-5.9,45.05,45.05,0,0,1,17.2,3.63c13.13,5.39,25.91,12.32,38.85,18.55,4.4,2.12,8.87,3.6,13.41,3.6a19.66,19.66,0,0,0,7-1.29c4.82-1.82,5.55-4.41,3.55-10.65-2.07-6.49-4.15-13-6.19-19.49Q629.37,455,617.51,417c-.76-2.43-1.66-3.64-3-3.64a4.39,4.39,0,0,0-2.44,1,15.59,15.59,0,0,1-9.28,3.2,19.18,19.18,0,0,1-9.51-2.83,94.27,94.27,0,0,1-12.15-7.7,5,5,0,0,0-2.89-1.35Z" transform="translate(77.47 82.6)"/><line class="cls-10" x1="713.29" y1="511.83" x2="750.93" y2="619.92"/><path d="M759.38,657.84C590.27,800,421.87,794.17,253.32,657.7l-45.36,72c91,66.8,186,114.48,294.76,115.74C614.46,846.75,712,798.84,805.1,730.13ZM544.82,832C426.56,843.63,320.6,800.6,220.29,727.33l3.22-5.25,1.38-2.24,2.55-4.15,4.32-7,1.71-2.79,4.39-7.14,2.89-4.72c.6-1,1.18-1.92,1.76-2.88s1.17-1.9,1.75-2.86q2.75-4.47,5.45-8.92l.87-1.45c.26-.43.52-.83.78-1.19s.53-.7.79-1c.13-.15.26-.3.39-.43a6.71,6.71,0,0,1,2.7-1.85l.39-.12.44-.09c.11,0,.22,0,.34,0,2.71-.22,5.49,1.87,8.56,4.26,1.38,1.07,2.76,2.14,4.15,3.19q4.61,3.52,9.24,6.93l3.3,2.4q2.35,1.71,4.72,3.38c.88.62,1.75,1.24,2.64,1.85s1.75,1.23,2.62,1.82c1.07.75,2.14,1.48,3.21,2.21q5.79,3.94,11.65,7.71l2.58,1.64c1,.66,2,1.3,3.07,1.94s2.15,1.34,3.23,2q6.86,4.22,13.8,8.17c1.47.84,3,1.68,4.44,2.5q4,2.19,7.95,4.31t8,4.14c1.35.68,2.69,1.35,4,2l4.06,2,4.08,1.92,4.1,1.88c2.74,1.23,5.49,2.44,8.26,3.61,1.38.59,2.76,1.17,4.15,1.74q6.25,2.58,12.59,4.94l3.82,1.4q3.24,1.17,6.48,2.28l.2.07,2,.67,3.29,1.09,3.33,1.07,3.82,1.19,3.33,1,.48.14c1.27.38,2.54.74,3.81,1.1,1.49.43,3,.84,4.49,1.24l3.13.83c1.27.33,2.53.66,3.8,1,.93.23,1.85.46,2.77.67l2.54.61.63.14,2.36.54q2.76.62,5.53,1.19l2.76.56q3.15.63,6.31,1.19c1.24.23,2.47.44,3.71.65s2.21.37,3.32.54l2.43.37c3.34.51,6.67.95,10,1.35q1.05.13,2.1.24l3,.32,2.39.24q3.32.31,6.62.56l2.46.17,2.32.15c1.06.07,2.11.12,3.17.17h.21q1.74.09,3.48.15l.43,0,2.33.07,1.81.05,1.13,0,2.5,0a303.1,303.1,0,0,0,43.81-2.69c1.27-.17,2.53-.35,3.8-.54,1.08-.16,2.16-.32,3.24-.5l1.18-.18,3.29-.56c1.29-.22,2.57-.46,3.86-.7l3.85-.74q3.45-.71,6.9-1.47,5-1.12,10-2.42c1.13-.29,2.25-.59,3.38-.9.33-.08.67-.17,1-.27.83-.22,1.66-.45,2.49-.7l2.31-.66,1.34-.4q1.5-.43,3-.9l2.14-.67,1-.31,2.4-.77c1-.34,2.07-.68,3.1-1l3.1-1.07,3.1-1.1q2.46-.88,4.92-1.83c.84-.31,1.68-.63,2.52-1l1.85-.72,3.27-1.31,1.85-.77c1.1-.45,2.2-.92,3.3-1.39,1.32-.56,2.63-1.13,3.94-1.71l1.57-.7c1.16-.52,2.31-1,3.47-1.58l4-1.86c1.23-.58,2.45-1.17,3.68-1.78q1-.49,2.07-1c1.24-.62,2.48-1.24,3.72-1.88,2-1,4-2.07,6-3.14s3.94-2.17,5.9-3.28,3.92-2.26,5.86-3.41l2.9-1.74,2.9-1.77q8-4.9,15.8-10.13c1.43-.94,2.85-1.89,4.28-2.85,8.54-5.73,17-11.62,25.5-17.47q5.67-3.89,11.34-7.74h0q5.68-3.84,11.4-7.57h0c2.42-1.58,4.86-3.11,8-5.1l.63-.4c1.26,2,2.52,4,3.76,5.94l7.49,11.83,5.9,9.32,5.44,8.6,7.81,12.33,4.59,7.26C716.36,784.87,634.82,823.11,544.82,832Z" transform="translate(77.47 82.6)"/><path class="cls-2" d="M282.08,668.59c-7.28-5.5-14.74-10.62-21.7-16.51-5.55-4.7-8.86-3.68-12.82,2.78-8.62,14-18,27.51-28.18,43l-86.88-65,26.79-9.34c-4.38-9.94-8.31-18.86-13-29.57h30.12c-.81-9-1.49-16.44-2.46-27.3,14.58,10.59,27.36,19.68,40,29.06,22.16,16.48,44,33.51,66.4,49.52C290.09,652.23,290.6,658.79,282.08,668.59Z" transform="translate(77.47 82.6)"/><path class="cls-2" d="M880.5,633l-86.64,65.45c-11.18-16.87-22.24-33.53-33.89-51.11l-28.61,21.56c-6.59-7.52-11.35-13.65-.6-21.59,34-25.11,67.7-50.67,101.59-75.95,1.65-1.24,3.86-1.46,7.3-2.69-1.35,8.88-2.46,16.16-3.75,24.61h31c-4.56,10.87-8.42,20.06-13,30.84Z" transform="translate(77.47 82.6)"/><path class="cls-1" d="M220.29,727.33c11-18,20.73-33.66,30.3-49.42,4.72-7.78,9.12-4.55,14.38-.46,39.22,30.48,80.84,55.44,125.91,72.24,90.23,33.63,179.61,31.55,266.55-13,31.9-16.36,61.3-39.22,91.85-59.12,2.58-1.68,5.18-3.32,8.59-5.51,11.49,18.16,22.58,35.68,35,55.29-76.5,57.56-158,95.8-248,104.67C426.56,843.63,320.6,800.6,220.29,727.33Z" transform="translate(77.47 82.6)"/><text class="cls-11" transform="matrix(0.68, 0.47, -0.57, 0.82, 306.46, 801.69)">L</text><text class="cls-11" transform="translate(331.73 819.26) rotate(31.77) scale(0.83 1)">U</text><text class="cls-11" transform="matrix(0.73, 0.39, -0.47, 0.88, 362.72, 838.5)">M</text><text class="cls-11" transform="translate(399.27 857.79) rotate(25.36) scale(0.83 1)">E</text><text class="cls-11" transform="matrix(0.76, 0.33, -0.4, 0.92, 428.58, 871.82)">N</text><text class="cls-11" transform="translate(461.65 886.08) rotate(21.07) scale(0.83 1)"> </text><text class="cls-11" transform="matrix(0.79, 0.25, -0.31, 0.95, 475.43, 891.62)">T</text><text class="cls-11" transform="translate(506.12 901.53) rotate(11.7) scale(0.83 1)">U</text><text class="cls-11" transform="matrix(0.83, 0.06, -0.08, 1, 543.55, 909.08)">U</text><text class="cls-11" transform="translate(581.86 911.9) rotate(-3.5) scale(0.83 1)">M</text><text class="cls-11" transform="translate(624.35 908.54) rotate(-8.98) scale(0.83 1)"> </text><text class="cls-11" transform="translate(639.49 906.36) rotate(-13.16) scale(0.83 1)">F</text><text class="cls-11" transform="translate(670.69 899.04) rotate(-18.87) scale(0.83 1)">U</text><text class="cls-11" transform="translate(705.57 886.85) rotate(-23.59) scale(0.83 1)">L</text><text class="cls-11" transform="translate(733.96 874.42) rotate(-26.94) scale(0.83 1)">G</text><text class="cls-11" transform="translate(767.98 857.24) rotate(-29.33) scale(0.83 1)">E</text><text class="cls-11" transform="matrix(0.7, -0.45, 0.55, 0.84, 797.47, 840.65)">A</text><text class="cls-11" transform="matrix(0.67, -0.49, 0.59, 0.81, 824.85, 822.82)">T</text><text class="cls-12" transform="translate(216.97 537.23) scale(0.8 1)">19</text><text class="cls-12" transform="translate(869.43 537.09) scale(1.17 1)">53</text><text class="cls-13" transform="translate(168.01 647.06) rotate(-93.15) scale(1.3 1)">S</text><text class="cls-13" transform="matrix(0.14, -1.29, 0.99, 0.11, 164.58, 580.65)">E</text><text class="cls-13" transform="translate(170.98 518.75) rotate(-75.09) scale(1.3 1)">V</text><text class="cls-13" transform="translate(188.36 453.87) rotate(-66.78) scale(1.3 1)">E</text><text class="cls-13" transform="translate(212.4 396.43) rotate(-58.15) scale(1.3 1)">N</text><text class="cls-13" transform="matrix(0.88, -0.96, 0.74, 0.67, 250.46, 335.71)">T</text><text class="cls-13" transform="matrix(1.01, -0.82, 0.63, 0.78, 292.15, 289.45)">H</text><text class="cls-13" transform="matrix(1.09, -0.7, 0.54, 0.84, 349.02, 244.69)">-</text><text class="cls-13" transform="translate(372.14 228.43) rotate(-26.45) scale(1.3 1)">D</text><text class="cls-13" transform="translate(428.67 199.81) rotate(-17.72) scale(1.3 1)">A</text><text class="cls-13" transform="translate(485.33 181.01) rotate(-9.34) scale(1.3 1)">Y</text><text class="cls-13" transform="matrix(1.3, -0.04, 0.03, 1, 551.82, 171.02)"> </text><text class="cls-13" transform="translate(580.05 169.2) rotate(4.88) scale(1.3 1)">A</text><text class="cls-13" transform="matrix(1.27, 0.29, -0.22, 0.97, 647.07, 174.81)">D</text><text class="cls-13" transform="translate(709.78 188.8) rotate(20.98) scale(1.3 1)">V</text><text class="cls-13" transform="matrix(1.13, 0.64, -0.5, 0.87, 772.42, 212.82)">E</text><text class="cls-13" transform="matrix(1.01, 0.82, -0.63, 0.77, 826.67, 243.12)">N</text><text class="cls-13" transform="translate(882.17 288.79) rotate(48.7) scale(1.3 1)">T</text><text class="cls-13" transform="translate(922.84 336.25) rotate(55.33) scale(1.3 1)">I</text><text class="cls-13" transform="translate(942.46 362.98) rotate(61.99) scale(1.3 1)">S</text><text class="cls-13" transform="translate(971.77 417.87) rotate(70.57) scale(1.3 1)">T</text><text class="cls-13" transform="matrix(0.3, 1.27, -0.97, 0.23, 991.77, 477.18)"> </text><text class="cls-13" transform="matrix(0.16, 1.29, -0.99, 0.13, 999.22, 504.56)">S</text><text class="cls-13" transform="matrix(-0.04, 1.3, -1, -0.03, 1007.54, 566.23)">H</text><text class="cls-13" transform="translate(1005.37 638.17) rotate(100.37) scale(1.3 1)">S</text><text x="77.47" y="82.6"/><path class="cls-14" d="M859.75,863.5l0,0c-.49.33-5.7,3.81-14.66,9.47" transform="translate(77.47 82.6)"/><path class="cls-14" d="M171.18,873q-5-4.68-9.93-9.5" transform="translate(77.47 82.6)"/><path class="cls-15" d="M849.82,873A496.12,496.12,0,0,1,513.2,1006.48c-.9,0-1.8,0-2.7,0A496.2,496.2,0,0,1,171.18,873H322.59a410.77,410.77,0,0,0,375.82,0Z" transform="translate(77.47 82.6)"/><path class="cls-1" d="M539.57,873.5c29.06,0,30.38,30.48,1.36,31.58q-11.14.42-22.43.42t-22.43-.42c-29-1.1-27.7-31.58,1.36-31.58Z" transform="translate(77.47 82.6)"/><text class="cls-16" transform="translate(359.33 1014.32) rotate(23.92) scale(1.3 1)">B</text><text class="cls-16" transform="translate(435.1 1046.56) rotate(14.82) scale(1.3 1)">E</text><text class="cls-16" transform="translate(510.39 1065.73) rotate(5.28) scale(1.3 1)">K</text><text class="cls-16" transform="matrix(1.29, -0.13, 0.1, 1, 598.34, 1073.14)">W</text><text class="cls-16" transform="translate(700.4 1060.91) rotate(-16.26) scale(1.3 1)">A</text><text class="cls-16" transform="translate(777.95 1036.28) rotate(-23.66) scale(1.3 1)">I</text></svg>